<svg id="svg" version="1.1" xmlns="http://www.w3.org/2000/svg" xmlns:xlink="http://www.w3.org/1999/xlink" width="400" height="400" viewBox="0, 0, 400,400"><g id="svgg"><path id="path0" d="M153.200 241.239 C 151.863 241.864,150.293 242.136,147.100 242.297 C 142.188 242.544,141.902 242.819,144.569 244.735 C 147.785 247.044,148.000 247.717,148.000 255.471 C 148.000 263.127,147.773 263.950,145.862 263.224 C 144.219 262.599,139.463 262.698,138.132 263.384 C 137.510 263.705,136.475 264.076,135.834 264.208 C 134.059 264.574,128.400 270.535,128.400 272.039 C 128.400 272.673,128.040 274.138,127.600 275.296 C 126.577 277.989,126.573 281.013,127.591 283.256 C 128.026 284.215,128.386 285.401,128.391 285.890 C 128.405 287.290,132.715 291.268,135.178 292.153 C 138.232 293.251,144.367 292.522,146.147 290.850 C 147.459 289.617,148.952 289.757,150.096 291.220 L 151.051 292.439 153.776 292.004 C 155.274 291.764,157.063 291.276,157.750 290.917 C 158.438 290.559,159.540 290.154,160.200 290.017 C 161.551 289.736,161.829 288.676,160.600 288.490 C 156.375 287.851,156.396 287.955,156.420 267.049 C 156.432 256.133,156.621 248.148,156.936 245.300 C 157.274 242.235,157.299 240.798,157.016 240.795 C 156.787 240.792,156.240 240.701,155.800 240.593 C 155.360 240.485,154.190 240.775,153.200 241.239 M319.546 241.354 C 318.966 241.865,317.748 242.402,316.840 242.547 C 315.932 242.692,314.850 243.150,314.437 243.563 C 314.023 243.977,312.970 244.436,312.096 244.584 C 311.222 244.731,309.898 245.365,309.154 245.991 L 307.800 247.130 309.705 247.953 C 312.475 249.149,312.399 248.496,312.406 271.326 C 312.413 294.258,312.262 293.123,315.172 292.171 C 317.128 291.532,317.479 291.530,320.603 292.144 C 326.150 293.234,332.139 292.645,334.200 290.807 C 334.640 290.415,335.585 289.798,336.300 289.437 C 337.015 289.075,337.600 288.638,337.600 288.465 C 337.600 288.292,337.938 287.788,338.352 287.344 C 341.889 283.547,343.084 278.285,341.853 271.928 C 340.489 264.884,333.244 261.160,325.992 263.776 C 321.011 265.572,321.252 266.206,321.678 252.410 C 322.082 239.321,322.049 239.149,319.546 241.354 M30.560 242.959 C 29.909 244.657,30.697 245.555,32.828 245.538 C 36.396 245.511,36.270 245.061,36.576 258.921 C 36.723 265.564,36.696 275.001,36.517 279.890 C 36.150 289.904,36.145 289.919,33.155 290.264 C 30.716 290.545,30.382 290.687,30.633 291.341 C 30.852 291.912,39.299 292.364,53.000 292.539 C 59.079 292.616,65.026 291.878,66.388 290.876 C 66.944 290.467,67.895 290.009,68.500 289.858 C 69.105 289.708,69.600 289.433,69.600 289.248 C 69.600 289.063,70.008 288.302,70.507 287.556 C 73.091 283.691,74.195 278.435,72.807 276.600 C 72.640 276.380,72.275 275.480,71.994 274.600 C 71.160 271.985,68.797 269.678,65.474 268.236 C 64.773 267.932,63.579 267.102,62.819 266.391 L 61.439 265.098 62.364 264.349 C 62.872 263.937,63.514 263.600,63.789 263.600 C 66.775 263.600,70.104 257.900,69.895 253.144 L 69.726 249.288 67.470 247.086 C 65.668 245.326,64.791 244.784,63.107 244.388 C 61.948 244.116,60.460 243.608,59.800 243.260 C 57.952 242.287,30.925 242.008,30.560 242.959 M234.100 242.672 C 233.062 242.884,233.080 242.832,233.588 244.167 C 233.884 244.946,234.351 245.247,235.569 245.441 C 238.592 245.925,238.434 244.643,238.311 267.732 C 238.184 291.330,238.442 289.774,234.565 290.329 C 233.218 290.521,232.600 290.797,232.600 291.205 C 232.600 291.981,270.530 292.322,271.454 291.555 C 271.754 291.306,272.000 290.470,272.000 289.698 C 272.000 288.926,272.342 287.733,272.761 287.047 C 273.180 286.361,273.727 284.460,273.977 282.822 C 274.227 281.184,274.608 279.631,274.825 279.370 C 275.107 279.030,274.907 278.837,274.111 278.685 C 272.771 278.429,272.400 278.621,272.400 279.569 C 272.400 279.965,271.860 280.969,271.200 281.800 C 270.540 282.631,270.000 283.433,270.000 283.583 C 270.000 284.107,265.718 288.208,264.166 289.171 C 261.964 290.535,249.531 290.737,248.569 289.424 C 247.859 288.454,247.710 248.489,248.412 247.178 C 248.985 246.107,250.893 245.200,252.573 245.200 C 253.967 245.200,255.031 243.699,254.215 242.881 C 253.906 242.571,235.537 242.380,234.100 242.672 M52.384 245.244 C 55.654 246.140,58.786 248.401,58.813 249.884 C 58.820 250.278,59.090 250.949,59.413 251.376 C 60.181 252.392,60.207 257.124,59.451 258.211 C 59.149 258.645,58.778 259.569,58.627 260.265 C 58.231 262.086,55.360 264.223,52.865 264.554 C 51.542 264.729,50.632 265.127,49.989 265.811 L 49.049 266.813 47.926 265.584 C 45.789 263.244,45.750 262.931,46.266 252.180 C 46.634 244.509,47.231 243.832,52.384 245.244 M112.615 247.176 C 112.487 247.384,111.591 247.948,110.623 248.431 C 109.630 248.927,108.766 249.677,108.638 250.155 C 107.515 254.339,111.906 257.517,115.934 255.434 C 118.724 253.991,119.143 249.237,116.575 248.164 C 115.849 247.860,115.142 247.429,115.004 247.206 C 114.688 246.695,112.926 246.673,112.615 247.176 M96.503 262.447 C 95.116 262.847,92.400 265.290,92.400 266.137 C 92.400 266.417,92.149 266.990,91.843 267.408 C 91.147 268.361,90.000 267.616,90.000 266.211 C 90.000 265.720,89.815 264.789,89.589 264.140 L 89.178 262.961 86.089 263.966 C 84.390 264.519,82.801 265.232,82.557 265.551 C 82.314 265.870,81.324 266.241,80.357 266.375 C 77.940 266.710,78.010 268.057,80.573 270.512 L 82.400 272.263 82.400 280.669 C 82.400 289.979,82.288 290.393,79.769 290.406 C 78.016 290.415,77.279 291.000,78.320 291.557 C 79.477 292.176,94.955 292.159,96.117 291.537 C 97.182 290.968,96.300 290.476,94.129 290.428 C 91.660 290.374,91.600 290.125,91.600 279.952 C 91.600 268.225,92.229 266.799,96.597 268.624 C 100.988 270.459,105.339 264.615,101.222 262.412 C 100.299 261.918,98.282 261.933,96.503 262.447 M350.679 262.654 C 350.526 262.808,350.400 263.434,350.400 264.046 C 350.400 264.661,349.977 265.615,349.454 266.179 C 348.342 267.380,347.741 270.606,348.468 271.482 C 348.854 271.947,349.477 271.508,352.028 268.972 L 355.119 265.899 357.924 265.698 C 362.841 265.347,364.990 266.243,363.412 267.987 C 363.034 268.404,362.428 269.282,362.063 269.938 C 361.698 270.594,360.991 271.867,360.492 272.766 C 359.992 273.665,359.429 274.400,359.240 274.400 C 359.052 274.400,358.679 274.927,358.412 275.571 C 358.145 276.215,357.690 276.833,357.401 276.944 C 357.112 277.055,356.753 277.704,356.603 278.387 C 356.453 279.069,355.896 279.912,355.365 280.260 C 354.834 280.607,354.400 281.207,354.400 281.591 C 354.400 282.222,353.866 283.041,351.221 286.463 C 350.770 287.048,350.400 287.804,350.400 288.143 C 350.400 288.482,349.945 289.249,349.390 289.849 C 347.640 291.737,347.879 291.785,360.233 292.027 C 366.595 292.151,372.070 292.371,372.400 292.516 C 373.014 292.785,374.977 290.139,375.752 288.000 C 375.951 287.450,376.448 286.522,376.857 285.938 C 377.593 284.886,377.844 283.177,377.337 282.670 C 377.192 282.525,376.236 283.260,375.212 284.303 C 370.472 289.132,368.149 290.384,363.914 290.393 C 359.735 290.401,358.890 289.739,360.517 287.729 C 361.020 287.108,361.652 286.150,361.922 285.600 C 362.193 285.050,362.958 283.880,363.624 283.000 C 364.289 282.120,365.180 280.635,365.603 279.700 C 366.026 278.765,366.562 278.000,366.794 278.000 C 367.027 278.000,367.438 277.510,367.709 276.911 C 368.241 275.731,373.523 267.558,374.686 266.114 C 375.354 265.285,375.415 265.057,375.260 263.987 C 375.220 263.713,372.191 263.608,366.300 263.675 C 360.460 263.741,356.919 263.619,356.000 263.320 C 354.086 262.698,351.020 262.314,350.679 262.654 M116.242 263.399 C 115.825 263.715,114.430 264.093,113.144 264.238 C 111.820 264.388,110.452 264.808,109.993 265.206 C 109.547 265.593,108.331 266.126,107.291 266.390 L 105.400 266.870 107.800 269.110 L 110.200 271.351 110.342 277.918 C 110.591 289.414,110.278 290.400,106.381 290.400 C 104.383 290.400,104.172 291.450,106.100 291.799 C 109.046 292.332,123.400 291.835,123.400 291.200 C 123.400 290.793,122.833 290.524,121.636 290.365 C 118.386 289.931,118.400 289.991,118.400 276.736 C 118.400 263.674,118.125 261.974,116.242 263.399 M174.400 263.348 C 173.850 263.649,172.770 264.011,172.000 264.154 C 165.395 265.378,163.722 275.838,169.270 281.222 C 170.939 282.841,171.073 283.772,169.709 284.285 C 168.735 284.650,166.792 286.769,166.340 287.957 C 165.503 290.160,166.320 294.800,167.546 294.800 C 167.884 294.800,168.800 296.559,168.800 297.209 C 168.800 297.413,168.235 297.871,167.545 298.228 C 161.782 301.209,162.488 308.496,168.717 310.323 C 175.338 312.265,186.920 311.423,189.800 308.791 C 190.240 308.388,191.107 307.933,191.727 307.780 C 192.385 307.616,193.256 306.898,193.822 306.050 C 194.355 305.252,195.068 304.221,195.406 303.758 C 197.055 301.499,196.109 295.301,193.824 293.400 C 193.031 292.740,191.981 291.840,191.491 291.400 C 190.677 290.668,189.877 290.583,182.141 290.400 C 172.594 290.174,172.000 289.993,172.000 287.312 C 172.000 284.292,173.380 283.600,179.398 283.600 C 182.904 283.600,183.573 283.493,184.167 282.836 C 184.548 282.416,185.308 281.959,185.857 281.821 C 189.172 280.989,191.702 274.539,190.440 270.138 C 189.826 268.000,192.741 266.988,194.293 268.800 C 196.094 270.904,199.303 268.359,198.189 265.710 C 197.909 265.042,197.471 264.367,197.216 264.210 C 195.978 263.445,190.000 264.301,190.000 265.244 C 190.000 266.002,188.752 266.081,187.969 265.372 C 185.975 263.567,176.568 262.165,174.400 263.348 M211.363 263.370 C 210.683 263.666,209.400 264.031,208.512 264.181 C 207.624 264.331,206.530 264.847,206.081 265.327 C 205.632 265.807,204.694 266.740,203.997 267.400 C 203.300 268.060,202.471 269.140,202.154 269.800 C 201.838 270.460,201.309 271.450,200.979 272.000 C 199.836 273.908,200.337 283.413,201.686 285.400 C 204.586 289.673,206.510 291.516,208.400 291.829 C 209.170 291.957,210.322 292.228,210.960 292.431 C 214.031 293.408,220.297 292.431,222.421 290.643 C 223.067 290.100,223.912 289.542,224.298 289.405 C 225.282 289.053,227.698 285.632,227.439 284.958 C 227.108 284.094,225.752 284.297,224.576 285.387 C 223.990 285.930,223.126 286.494,222.655 286.641 C 222.185 286.788,221.682 287.092,221.537 287.318 C 220.922 288.275,217.017 288.126,214.761 287.059 C 211.368 285.454,210.159 283.944,209.264 280.195 C 207.901 274.488,208.675 273.951,217.805 274.277 C 227.428 274.620,227.890 274.330,225.940 269.171 C 224.127 264.376,216.252 261.241,211.363 263.370 M290.718 263.222 C 290.343 263.441,288.993 263.824,287.718 264.074 C 286.347 264.343,284.882 264.952,284.133 265.565 C 283.436 266.134,282.395 266.928,281.820 267.328 C 277.509 270.331,278.265 274.935,282.953 274.226 C 285.589 273.827,285.745 273.607,285.984 269.925 L 286.200 266.600 287.958 266.044 C 290.397 265.273,293.190 265.817,293.885 267.200 C 295.578 270.566,293.945 275.674,290.999 276.227 C 290.255 276.366,289.061 276.912,288.346 277.440 C 287.630 277.968,286.723 278.400,286.330 278.400 C 285.467 278.400,282.546 280.548,281.185 282.184 C 280.301 283.246,280.200 283.733,280.200 286.913 L 280.200 290.457 281.600 291.618 C 283.623 293.295,289.409 292.902,291.652 290.935 C 292.011 290.620,292.955 290.031,293.749 289.626 L 295.194 288.889 296.297 290.259 C 298.909 293.504,305.282 293.488,307.416 290.232 C 308.307 288.872,307.600 287.848,306.012 288.197 C 303.696 288.706,303.448 287.774,303.271 277.875 C 303.183 272.994,302.959 268.811,302.773 268.580 C 302.587 268.349,302.317 267.423,302.173 266.521 C 301.730 263.751,293.752 261.453,290.718 263.222 M181.839 266.432 C 182.275 266.794,182.400 268.247,182.400 272.967 L 182.400 279.035 180.836 280.518 C 178.460 282.769,174.599 281.640,173.801 278.462 C 173.394 276.840,173.547 269.647,174.007 268.788 C 175.698 265.627,179.493 264.486,181.839 266.432 M145.846 266.700 C 146.401 267.305,147.150 268.120,147.509 268.510 C 148.731 269.840,148.768 284.814,147.553 286.587 C 145.860 289.057,142.120 289.206,139.679 286.900 C 136.638 284.028,136.000 282.060,136.000 275.555 L 136.000 269.883 137.421 267.741 L 138.843 265.600 141.840 265.600 C 144.597 265.600,144.917 265.688,145.846 266.700 M217.486 266.514 C 218.484 267.512,218.687 271.201,217.781 271.864 C 216.802 272.580,210.816 272.593,209.843 271.881 C 208.473 270.879,210.183 266.268,212.075 265.865 C 213.764 265.505,216.847 265.875,217.486 266.514 M53.203 267.732 C 62.581 269.420,65.756 281.462,58.753 288.782 C 56.768 290.856,49.796 291.592,48.488 289.865 C 46.879 287.742,46.221 284.152,46.073 276.687 C 45.872 266.504,45.936 266.424,53.203 267.732 M330.772 269.423 C 332.128 270.738,332.403 271.295,332.631 273.183 C 332.778 274.402,333.102 275.653,333.349 275.961 C 334.090 276.883,333.876 283.100,333.025 285.400 C 331.181 290.387,326.309 292.207,323.251 289.052 C 320.912 286.639,320.233 270.075,322.400 268.319 C 324.209 266.853,328.741 267.451,330.772 269.423 M293.986 278.374 C 294.479 279.295,294.533 286.771,294.052 287.529 C 293.502 288.397,291.061 288.757,289.676 288.175 C 287.690 287.340,286.947 282.714,288.542 281.113 C 288.823 280.831,289.389 280.087,289.799 279.461 C 291.006 277.614,293.266 277.028,293.986 278.374 M186.071 298.019 C 187.368 298.368,187.767 298.719,188.240 299.924 C 188.559 300.736,189.008 301.732,189.237 302.138 C 189.763 303.069,188.795 305.303,187.156 306.941 C 184.336 309.757,174.501 309.593,171.679 306.682 C 165.493 300.299,174.470 294.895,186.071 298.019 " stroke="none" fill="#0e2e4d" fill-rule="evenodd"></path><path id="path1" d="M0.000 200.000 L 0.000 400.000 200.000 400.000 L 400.000 400.000 400.000 200.000 L 400.000 0.000 200.000 0.000 L 0.000 0.000 0.000 200.000 M266.165 95.258 C 267.504 95.924,269.230 96.806,270.000 97.217 C 271.780 98.166,275.953 102.684,276.265 104.000 C 276.396 104.550,276.975 105.507,277.552 106.126 L 278.600 107.252 278.600 114.560 L 278.600 121.868 277.500 123.455 C 276.895 124.329,276.400 125.258,276.400 125.520 C 276.400 126.212,271.228 131.565,269.891 132.256 C 269.268 132.579,268.434 133.166,268.038 133.562 C 267.636 133.964,266.384 134.405,265.195 134.563 C 264.027 134.718,262.700 135.105,262.247 135.422 C 261.694 135.810,260.361 136.000,258.200 136.000 C 256.039 136.000,254.706 135.810,254.153 135.422 C 253.700 135.105,252.355 134.723,251.164 134.574 C 249.648 134.385,248.726 134.019,248.084 133.352 C 247.580 132.828,246.969 132.400,246.727 132.400 C 246.108 132.400,241.974 128.811,241.704 128.038 C 241.581 127.687,241.156 127.037,240.758 126.593 C 238.001 123.515,236.770 117.678,237.527 111.273 C 238.171 105.831,241.931 99.793,246.126 97.466 C 246.985 96.990,248.613 96.079,249.744 95.442 C 253.729 93.197,261.843 93.106,266.165 95.258 M136.062 136.854 C 136.646 137.264,137.263 137.600,137.432 137.600 C 138.172 137.600,141.948 140.560,142.449 141.532 C 142.751 142.119,143.224 142.744,143.499 142.920 C 143.775 143.096,144.001 143.456,144.002 143.720 C 144.002 143.984,144.542 145.280,145.200 146.600 C 146.681 149.569,146.851 153.195,145.630 155.774 C 145.207 156.668,144.603 158.030,144.289 158.800 C 143.633 160.405,140.101 164.400,139.338 164.400 C 139.058 164.400,138.644 164.744,138.420 165.164 C 136.819 168.153,123.428 168.359,121.701 165.420 C 121.535 165.138,120.831 164.618,120.135 164.262 C 119.440 163.907,118.493 163.117,118.031 162.508 C 117.570 161.899,116.834 160.980,116.396 160.466 C 115.958 159.952,115.600 159.180,115.600 158.750 C 115.600 158.320,115.240 157.262,114.800 156.400 C 113.701 154.246,113.674 149.011,114.751 146.884 C 115.164 146.068,115.627 144.823,115.779 144.117 C 116.366 141.396,123.015 136.472,126.800 135.954 C 129.877 135.533,134.873 136.018,136.062 136.854 M323.545 141.190 C 330.545 142.220,330.000 141.453,330.000 150.275 C 330.000 159.224,330.006 159.208,326.917 158.711 C 322.798 158.049,309.069 158.474,308.253 159.289 C 307.874 159.669,306.813 160.181,305.896 160.428 C 304.979 160.675,303.793 161.220,303.260 161.639 C 302.728 162.057,302.073 162.400,301.805 162.400 C 300.852 162.400,292.400 170.507,292.400 171.421 C 292.400 171.714,292.064 172.190,291.654 172.477 C 291.243 172.765,290.781 173.577,290.626 174.281 C 290.471 174.986,289.995 176.007,289.568 176.550 C 289.141 177.093,288.611 178.497,288.390 179.669 C 288.169 180.841,287.724 182.362,287.400 183.048 C 287.077 183.734,286.625 185.624,286.397 187.248 C 286.168 188.872,285.728 190.920,285.419 191.800 C 285.058 192.826,284.771 196.034,284.618 200.744 C 284.300 210.588,285.478 209.600,274.056 209.600 C 262.909 209.600,262.698 209.514,261.819 204.600 C 261.662 203.720,261.188 202.439,260.766 201.753 C 260.345 201.067,260.000 200.233,260.000 199.901 C 260.000 198.938,255.922 191.244,254.357 189.254 C 253.941 188.725,253.600 188.118,253.600 187.905 C 253.600 186.770,244.945 177.643,241.742 175.400 C 240.520 174.544,237.581 173.045,233.968 171.435 C 229.994 169.665,216.355 169.630,214.416 171.386 C 214.042 171.724,213.553 172.000,213.329 172.000 C 212.819 172.000,208.051 174.517,206.299 175.711 C 203.929 177.326,199.300 182.387,197.564 185.260 C 196.624 186.815,195.645 188.298,195.388 188.555 C 195.131 188.812,194.694 189.737,194.416 190.611 C 194.138 191.485,193.647 192.621,193.324 193.135 C 192.443 194.536,191.197 198.250,190.551 201.400 C 188.687 210.484,189.269 210.000,180.205 210.000 L 172.962 210.000 171.525 208.500 C 170.734 207.675,169.953 206.550,169.790 206.000 C 169.041 203.484,160.339 194.846,157.974 194.271 C 157.409 194.134,156.527 193.657,156.013 193.211 C 155.498 192.765,154.671 192.400,154.174 192.400 C 153.678 192.400,152.130 192.042,150.736 191.605 C 147.434 190.570,143.632 190.568,140.696 191.600 C 139.444 192.040,138.087 192.400,137.680 192.400 C 137.273 192.400,136.517 192.850,136.000 193.400 C 135.483 193.950,134.754 194.400,134.380 194.400 C 134.006 194.400,132.853 195.211,131.819 196.203 C 130.784 197.194,129.591 198.191,129.169 198.417 C 128.746 198.643,128.400 199.082,128.400 199.391 C 128.400 199.701,128.085 200.190,127.700 200.477 C 127.315 200.765,126.673 201.630,126.273 202.400 C 124.508 205.796,122.385 208.976,121.402 209.694 C 121.181 209.856,117.377 209.991,112.949 209.994 C 103.122 210.001,103.657 210.319,104.322 204.869 C 104.710 201.683,104.689 200.329,104.204 197.200 C 103.880 195.110,103.611 192.840,103.607 192.156 C 103.583 187.953,96.829 180.060,91.851 178.417 C 91.049 178.152,90.108 177.651,89.760 177.303 C 89.267 176.809,87.820 176.613,83.198 176.413 C 75.500 176.078,76.000 176.592,76.000 169.013 C 76.000 161.339,75.931 161.436,81.305 161.537 C 86.165 161.628,88.283 161.945,90.084 162.853 C 90.900 163.264,92.178 163.600,92.924 163.600 C 94.436 163.600,96.800 164.317,96.800 164.775 C 96.800 164.938,97.565 165.321,98.500 165.625 C 100.349 166.226,103.750 168.183,104.887 169.300 C 105.279 169.685,105.801 170.000,106.047 170.000 C 106.658 170.000,114.400 177.932,114.400 178.559 C 114.400 178.835,114.850 179.483,115.400 180.000 C 115.950 180.517,116.400 181.224,116.400 181.571 C 116.400 181.918,116.996 183.041,117.725 184.067 L 119.050 185.930 120.825 184.781 C 121.801 184.149,123.214 183.175,123.964 182.616 C 124.715 182.057,125.652 181.600,126.047 181.600 C 126.441 181.600,127.428 181.150,128.238 180.600 C 129.049 180.050,130.024 179.600,130.405 179.600 C 130.786 179.600,131.886 179.253,132.849 178.828 C 136.881 177.051,156.748 177.035,159.000 178.807 C 159.220 178.980,160.208 179.338,161.196 179.602 C 162.184 179.867,163.444 180.398,163.996 180.783 C 164.548 181.168,165.532 181.612,166.183 181.770 C 166.834 181.928,167.803 182.494,168.338 183.028 C 168.872 183.563,169.484 184.000,169.697 184.000 C 169.910 184.000,170.790 184.558,171.651 185.240 C 173.621 186.800,174.894 186.242,175.614 183.502 C 175.859 182.566,176.314 181.350,176.625 180.800 C 176.935 180.250,177.552 179.080,177.995 178.200 C 178.439 177.320,179.337 175.880,179.991 175.000 C 180.645 174.120,181.614 172.770,182.143 172.000 C 183.395 170.180,189.122 164.429,190.708 163.400 C 191.386 162.960,192.989 161.897,194.270 161.037 C 195.552 160.177,197.050 159.173,197.600 158.806 C 198.150 158.438,199.218 157.925,199.974 157.664 C 200.730 157.403,201.630 156.956,201.974 156.669 C 202.318 156.383,203.950 155.650,205.600 155.041 C 207.250 154.431,209.500 153.563,210.600 153.111 C 211.700 152.659,214.220 152.058,216.200 151.776 C 218.180 151.494,220.430 151.024,221.200 150.731 C 223.384 149.903,234.869 150.002,237.200 150.870 C 238.190 151.239,239.990 151.651,241.200 151.785 C 243.272 152.015,244.251 152.388,249.886 155.100 C 255.148 157.632,264.058 164.658,266.008 167.814 C 267.234 169.797,268.833 170.742,269.380 169.808 C 269.611 169.415,270.205 168.596,270.700 167.989 C 271.195 167.381,271.600 166.497,271.600 166.023 C 271.600 165.549,272.013 164.765,272.517 164.281 C 273.021 163.796,274.100 162.381,274.915 161.136 C 276.937 158.043,282.090 152.638,283.781 151.836 C 284.543 151.474,285.272 151.008,285.401 150.799 C 285.792 150.165,289.843 147.600,290.453 147.600 C 290.766 147.600,291.326 147.245,291.698 146.811 C 292.069 146.377,292.874 145.913,293.487 145.781 C 294.099 145.648,295.503 145.103,296.606 144.570 C 297.709 144.036,298.901 143.600,299.255 143.600 C 299.609 143.600,300.686 143.252,301.649 142.828 C 302.860 142.293,305.136 141.918,309.030 141.612 C 312.126 141.368,315.186 141.011,315.830 140.819 C 317.509 140.317,317.656 140.324,323.545 141.190 M157.981 240.177 C 158.344 240.614,158.429 246.030,158.330 262.477 C 158.190 285.810,158.272 287.200,159.785 287.200 C 165.370 287.200,162.157 291.974,156.118 292.647 C 154.843 292.790,153.530 293.131,153.200 293.406 C 151.775 294.592,150.874 294.502,149.943 293.081 C 148.963 291.587,146.800 290.444,146.800 291.421 C 146.800 292.038,145.590 292.800,144.610 292.800 C 144.257 292.800,143.454 293.180,142.826 293.644 C 141.314 294.762,135.397 294.653,134.750 293.496 C 134.535 293.113,134.091 292.800,133.762 292.800 C 133.433 292.800,132.718 292.354,132.173 291.809 C 131.628 291.264,130.826 290.628,130.391 290.395 C 129.956 290.162,129.600 289.737,129.600 289.450 C 129.600 289.163,129.153 288.725,128.607 288.476 C 127.874 288.142,127.546 287.600,127.355 286.412 C 127.214 285.525,126.963 284.800,126.797 284.800 C 125.446 284.800,125.184 276.027,126.474 274.000 C 126.824 273.450,127.223 272.355,127.361 271.567 C 127.499 270.777,128.057 269.747,128.605 269.270 C 129.152 268.794,129.600 268.150,129.600 267.838 C 129.600 267.168,131.829 265.200,132.588 265.200 C 132.877 265.200,133.219 264.928,133.346 264.597 C 133.473 264.265,134.078 263.780,134.689 263.519 C 135.300 263.259,136.127 262.771,136.528 262.436 C 137.048 262.000,138.417 261.789,141.328 261.696 C 147.739 261.491,147.319 261.785,147.050 257.683 C 146.522 249.642,145.812 246.400,144.579 246.400 C 143.681 246.400,141.600 244.221,141.600 243.280 C 141.600 241.953,142.744 241.443,146.342 241.167 C 148.244 241.021,150.520 240.616,151.400 240.268 C 153.469 239.450,157.333 239.396,157.981 240.177 M322.382 240.178 C 322.735 240.604,322.839 243.753,322.777 252.078 C 322.683 264.648,322.454 263.796,325.523 262.330 C 327.973 261.159,334.098 261.389,335.783 262.715 C 336.402 263.202,337.098 263.600,337.331 263.600 C 337.563 263.600,338.440 264.365,339.278 265.300 C 340.117 266.235,341.182 267.385,341.646 267.855 C 342.173 268.390,342.569 269.439,342.705 270.655 C 342.823 271.725,343.142 272.960,343.413 273.400 C 344.487 275.147,344.411 279.222,343.291 279.958 C 343.089 280.091,342.806 281.100,342.663 282.200 C 342.488 283.549,342.142 284.379,341.602 284.749 C 341.161 285.051,340.800 285.603,340.800 285.975 C 340.800 286.962,337.019 290.800,336.047 290.800 C 335.597 290.800,335.043 291.145,334.817 291.567 C 334.591 291.990,333.820 292.460,333.103 292.612 C 332.386 292.764,331.466 293.184,331.057 293.545 C 329.928 294.541,321.357 294.504,320.623 293.500 C 319.882 292.486,316.648 292.547,315.309 293.600 C 314.161 294.503,312.609 294.649,312.124 293.900 C 311.946 293.625,311.710 283.835,311.600 272.145 L 311.400 250.890 310.400 249.899 C 309.850 249.354,309.019 248.789,308.553 248.644 C 305.313 247.634,307.162 244.078,311.125 243.698 C 312.612 243.555,313.391 243.263,313.784 242.702 C 314.119 242.223,315.103 241.765,316.264 241.548 C 317.323 241.351,318.546 240.831,318.983 240.394 C 319.913 239.465,321.696 239.351,322.382 240.178 M61.764 242.700 C 62.423 243.218,63.465 243.600,64.221 243.600 C 65.617 243.600,68.800 246.009,68.800 247.066 C 68.800 247.360,69.074 247.600,69.410 247.600 C 70.476 247.600,70.864 249.630,70.730 254.493 C 70.591 259.528,70.783 259.001,68.059 261.800 C 66.042 263.873,64.698 264.801,63.693 264.816 L 62.600 264.832 63.653 265.404 C 64.231 265.718,64.804 266.234,64.926 266.550 C 65.047 266.866,65.684 267.243,66.341 267.387 C 67.344 267.607,68.747 268.552,70.087 269.909 C 71.846 271.691,72.800 272.936,72.800 273.451 C 72.800 273.793,73.160 274.531,73.600 275.091 C 74.740 276.541,74.779 282.821,73.655 283.945 C 73.245 284.355,72.788 285.340,72.639 286.134 C 72.490 286.928,72.041 287.807,71.641 288.089 C 71.242 288.370,70.792 288.990,70.641 289.467 C 70.490 289.943,69.880 290.538,69.284 290.789 C 68.688 291.040,67.570 291.595,66.800 292.022 C 66.030 292.449,64.719 292.799,63.886 292.799 C 63.053 292.800,61.892 293.115,61.305 293.500 C 59.372 294.768,31.950 294.235,30.391 292.899 C 28.544 291.318,29.750 289.200,32.497 289.200 C 35.580 289.200,35.400 290.537,35.400 267.665 C 35.400 256.446,35.286 247.153,35.147 247.014 C 35.008 246.875,33.918 246.712,32.725 246.652 C 29.899 246.510,29.600 246.281,29.600 244.256 C 29.600 241.454,28.939 241.561,45.604 241.687 C 60.488 241.799,60.631 241.808,61.764 242.700 M255.511 242.223 C 257.711 243.763,256.154 246.397,253.038 246.406 C 251.917 246.409,250.809 246.544,250.575 246.706 C 248.874 247.881,248.175 285.157,249.801 287.900 L 250.572 289.200 254.975 289.200 C 262.221 289.200,265.251 287.934,268.504 283.549 C 268.890 283.027,269.644 282.048,270.178 281.373 C 270.711 280.698,271.270 279.659,271.420 279.063 C 271.758 277.715,272.653 277.210,274.204 277.491 C 276.558 277.917,276.982 279.114,275.661 281.606 C 275.255 282.373,274.815 283.926,274.685 285.057 C 274.555 286.188,274.077 287.805,273.624 288.651 C 273.171 289.496,272.800 290.589,272.800 291.078 C 272.800 293.615,272.898 293.602,252.825 293.577 C 232.706 293.552,231.899 293.470,231.666 291.420 C 231.503 289.990,232.411 289.200,234.218 289.200 C 235.007 289.200,235.882 288.830,236.542 288.219 L 237.600 287.238 237.596 268.519 C 237.590 245.726,237.732 246.946,235.053 246.588 C 231.849 246.160,230.567 244.204,232.262 242.331 C 233.195 241.300,254.055 241.203,255.511 242.223 M116.844 246.867 C 117.920 247.564,118.800 248.297,118.800 248.496 C 118.800 248.695,119.070 249.127,119.400 249.457 C 120.126 250.183,120.197 253.034,119.500 253.480 C 119.225 253.656,118.726 254.334,118.392 254.987 C 117.974 255.802,117.346 256.279,116.392 256.508 C 115.626 256.691,114.543 256.981,113.984 257.154 C 113.425 257.326,112.705 257.328,112.384 257.157 C 112.063 256.987,111.286 256.739,110.658 256.606 C 109.991 256.464,109.431 256.038,109.311 255.582 C 109.199 255.152,108.877 254.800,108.596 254.800 C 107.108 254.800,107.155 249.208,108.654 248.029 C 109.234 247.573,109.880 247.200,110.091 247.200 C 110.301 247.200,110.931 246.840,111.491 246.400 C 112.938 245.262,114.589 245.406,116.844 246.867 M48.491 246.706 C 48.102 246.975,48.008 248.971,48.091 255.229 L 48.200 263.400 51.553 263.355 C 54.258 263.319,54.980 263.180,55.285 262.633 C 55.494 262.261,56.100 261.790,56.632 261.588 C 57.343 261.318,57.600 260.917,57.600 260.083 C 57.600 259.457,57.877 258.013,58.215 256.873 C 58.769 255.007,58.769 254.593,58.215 252.727 C 57.877 251.587,57.600 250.237,57.600 249.727 C 57.600 249.191,57.359 248.800,57.029 248.800 C 56.715 248.800,56.104 248.349,55.670 247.798 C 54.824 246.723,49.613 245.930,48.491 246.706 M103.083 262.602 C 103.568 263.072,104.157 263.961,104.392 264.579 C 104.894 265.898,106.933 265.844,108.804 264.460 C 109.371 264.041,110.629 263.564,111.599 263.400 C 112.569 263.236,114.041 262.749,114.870 262.317 C 116.596 261.417,118.315 261.602,119.402 262.802 C 120.018 263.483,120.081 264.690,120.026 274.699 C 119.950 288.562,120.030 289.200,121.851 289.200 C 124.848 289.200,125.566 292.183,122.757 292.961 C 120.316 293.637,107.839 293.711,105.916 293.061 C 102.628 291.949,102.840 290.049,106.320 289.447 C 109.026 288.979,109.200 288.407,109.200 279.986 C 109.200 272.552,109.094 272.138,106.632 269.970 C 104.042 267.690,103.321 267.559,101.789 269.091 C 100.393 270.487,97.344 270.934,95.597 269.998 C 95.079 269.721,94.528 269.741,93.823 270.062 L 92.800 270.528 92.800 279.818 L 92.800 289.108 95.000 289.383 C 99.009 289.884,99.417 291.614,95.881 293.123 C 93.983 293.933,79.299 293.717,77.835 292.858 C 75.094 291.248,75.658 289.832,79.230 289.358 C 81.597 289.044,81.600 289.033,81.600 279.834 L 81.600 272.967 79.900 271.469 C 78.965 270.645,77.975 269.790,77.700 269.570 C 76.102 268.288,77.321 265.863,79.786 265.418 C 80.659 265.260,81.599 264.808,81.877 264.412 C 82.154 264.016,83.060 263.567,83.890 263.413 C 84.721 263.258,85.670 262.902,86.000 262.620 C 88.145 260.788,90.272 261.642,90.649 264.486 C 90.891 266.306,90.968 266.439,91.285 265.582 C 91.866 264.011,94.728 261.682,96.432 261.395 C 97.269 261.253,98.158 260.892,98.407 260.591 C 98.930 259.961,101.491 261.063,103.083 262.602 M184.174 262.360 C 185.068 262.778,186.475 263.332,187.300 263.591 C 188.125 263.850,188.800 264.262,188.800 264.507 C 188.800 264.752,189.025 264.668,189.300 264.321 C 189.575 263.973,190.472 263.475,191.294 263.215 C 192.116 262.955,192.892 262.575,193.018 262.371 C 193.740 261.203,198.800 262.833,198.800 264.233 C 198.800 264.545,198.951 264.800,199.136 264.800 C 199.652 264.800,200.445 266.800,200.139 267.330 C 199.991 267.588,199.620 268.070,199.316 268.400 C 199.012 268.730,198.547 269.304,198.282 269.675 C 197.379 270.939,194.975 271.030,193.873 269.841 C 192.381 268.231,192.200 268.524,192.200 272.558 C 192.200 275.463,192.052 276.484,191.547 277.058 C 191.188 277.466,190.763 278.232,190.602 278.759 C 190.288 279.787,187.878 282.400,187.244 282.400 C 187.034 282.400,186.274 282.895,185.556 283.500 C 184.314 284.546,184.013 284.606,179.425 284.732 C 174.365 284.870,172.778 285.455,172.813 287.170 C 172.845 288.790,174.236 289.079,182.968 289.280 L 191.334 289.473 192.182 290.537 C 192.649 291.122,193.193 291.600,193.392 291.600 C 194.030 291.600,196.800 294.841,196.800 295.588 C 196.800 295.984,197.069 296.824,197.398 297.454 C 198.166 298.928,198.167 300.963,197.400 301.600 C 197.070 301.874,196.800 302.445,196.800 302.869 C 196.800 303.820,195.706 306.000,195.229 306.000 C 195.036 306.000,194.696 306.522,194.474 307.161 C 194.173 308.023,193.726 308.393,192.735 308.600 C 192.001 308.754,191.126 309.226,190.790 309.650 C 190.455 310.074,189.482 310.534,188.628 310.673 C 187.774 310.812,186.772 311.228,186.402 311.598 C 184.979 313.021,169.818 313.018,168.394 311.594 C 168.021 311.221,167.285 310.804,166.758 310.667 C 165.574 310.360,163.200 308.166,163.200 307.380 C 163.200 307.061,163.049 306.800,162.864 306.800 C 161.636 306.800,161.289 303.284,162.400 302.092 C 162.840 301.620,163.200 301.043,163.200 300.810 C 163.200 300.202,165.965 297.600,166.611 297.600 C 167.607 297.600,167.614 296.878,166.629 295.707 C 166.091 295.069,165.533 294.071,165.387 293.490 C 165.241 292.908,164.869 292.223,164.561 291.967 C 163.542 291.122,165.132 286.308,166.619 285.737 C 166.922 285.621,167.270 285.210,167.392 284.824 C 167.515 284.437,168.067 283.916,168.619 283.664 L 169.623 283.206 167.612 281.174 C 166.198 279.745,165.600 278.820,165.600 278.064 C 165.600 277.472,165.240 276.316,164.800 275.496 C 164.360 274.675,164.000 273.356,164.000 272.565 C 164.000 271.732,164.337 270.698,164.800 270.109 C 165.240 269.550,165.603 268.711,165.606 268.246 C 165.619 266.437,169.459 263.492,173.800 261.962 C 175.642 261.313,182.496 261.576,184.174 262.360 M221.125 262.668 C 223.739 263.896,226.256 266.275,226.651 267.890 C 226.800 268.501,227.255 269.429,227.661 269.954 C 228.753 271.364,228.636 273.800,227.418 275.018 C 226.443 275.994,226.385 276.000,218.626 276.000 L 210.815 276.000 210.562 277.009 C 210.137 278.702,210.775 283.200,211.440 283.200 C 211.758 283.200,212.221 283.647,212.469 284.192 C 212.988 285.331,213.321 285.469,216.600 285.908 C 219.662 286.317,222.864 285.706,223.860 284.520 C 225.733 282.293,229.394 283.497,228.578 286.071 C 228.167 287.363,225.584 290.352,224.615 290.655 C 224.167 290.795,223.291 291.335,222.669 291.855 C 222.047 292.375,221.252 292.800,220.901 292.800 C 220.550 292.800,219.915 293.115,219.490 293.500 C 217.972 294.875,209.200 294.578,209.200 293.151 C 209.200 292.958,208.658 292.800,207.996 292.800 C 206.921 292.800,205.586 291.906,203.800 289.990 C 203.580 289.754,202.995 289.177,202.500 288.708 C 202.005 288.239,201.600 287.625,201.600 287.343 C 201.600 287.062,201.212 286.470,200.739 286.029 C 199.698 285.059,199.248 282.635,199.248 278.000 C 199.248 273.365,199.698 270.941,200.739 269.971 C 201.212 269.530,201.601 268.951,201.602 268.684 C 201.605 268.014,205.975 263.602,206.642 263.598 C 206.839 263.596,207.540 263.305,208.200 262.951 C 211.511 261.175,217.658 261.041,221.125 262.668 M300.486 262.906 C 303.973 265.299,304.394 266.687,304.435 275.921 C 304.454 280.255,304.589 284.654,304.735 285.697 L 305.000 287.594 306.187 286.976 C 307.690 286.193,309.043 286.518,309.348 287.737 C 309.685 289.078,308.210 291.927,306.883 292.501 C 306.287 292.758,305.371 293.290,304.846 293.684 C 303.364 294.796,300.097 294.652,298.400 293.400 C 297.655 292.850,296.838 292.400,296.586 292.400 C 296.335 292.400,295.936 291.979,295.702 291.464 C 295.180 290.318,292.994 290.415,292.685 291.598 C 292.574 292.020,291.942 292.436,291.149 292.610 C 290.407 292.772,289.371 293.241,288.846 293.652 C 287.315 294.852,283.170 294.705,281.762 293.400 C 281.169 292.850,280.543 292.400,280.373 292.400 C 280.202 292.400,279.853 291.725,279.597 290.900 C 279.340 290.075,278.884 288.849,278.583 288.176 C 278.018 286.915,278.152 285.766,279.067 284.011 C 279.358 283.455,279.596 282.807,279.598 282.572 C 279.601 282.006,281.761 279.600,282.266 279.600 C 282.483 279.600,283.081 279.153,283.594 278.606 C 284.108 278.059,285.117 277.502,285.838 277.367 C 286.558 277.231,287.454 276.782,287.829 276.368 C 288.203 275.954,289.115 275.502,289.855 275.363 C 290.595 275.225,291.200 274.956,291.200 274.766 C 291.200 274.576,291.763 274.129,292.452 273.773 C 293.688 273.134,293.701 273.094,293.487 270.733 C 292.979 265.123,286.817 265.045,286.864 270.650 C 286.885 273.091,286.322 274.304,285.017 274.631 C 284.490 274.764,283.961 275.126,283.841 275.436 C 283.500 276.326,280.715 276.160,279.893 275.200 C 279.516 274.760,278.955 274.400,278.647 274.400 C 277.422 274.400,277.137 270.393,278.300 269.519 C 278.685 269.230,279.270 268.474,279.600 267.839 C 279.930 267.205,280.807 266.362,281.548 265.967 C 282.290 265.572,283.280 264.891,283.748 264.454 C 284.217 264.017,285.140 263.535,285.800 263.382 C 286.460 263.230,287.368 262.877,287.817 262.598 C 290.378 261.007,297.988 261.193,300.486 262.906 M375.856 262.465 C 377.009 263.375,376.656 266.800,375.410 266.800 C 375.025 266.800,374.800 267.171,374.800 267.804 C 374.800 268.373,374.281 269.351,373.600 270.063 C 372.940 270.754,372.400 271.556,372.400 271.845 C 372.400 272.135,372.040 272.565,371.600 272.800 C 371.160 273.035,370.800 273.556,370.800 273.956 C 370.800 274.356,370.395 275.121,369.900 275.657 C 369.405 276.192,368.779 277.118,368.509 277.715 C 368.238 278.312,367.743 278.800,367.409 278.800 C 367.023 278.800,366.800 279.173,366.800 279.818 C 366.800 280.378,366.364 281.272,365.831 281.805 C 365.298 282.338,364.746 283.140,364.604 283.588 C 364.462 284.035,364.019 284.576,363.619 284.790 C 363.220 285.003,362.770 285.833,362.620 286.634 C 362.440 287.594,362.084 288.158,361.574 288.291 C 361.148 288.402,360.800 288.737,360.800 289.034 C 360.800 290.022,367.150 289.287,368.531 288.140 C 369.153 287.623,369.988 287.200,370.388 287.200 C 370.787 287.200,371.219 286.927,371.347 286.594 C 371.475 286.261,372.034 285.815,372.590 285.604 C 373.145 285.393,373.600 285.029,373.600 284.797 C 373.600 284.044,376.348 281.600,377.195 281.600 C 378.960 281.600,379.247 285.208,377.645 287.259 C 377.241 287.777,376.774 288.650,376.608 289.200 C 376.441 289.750,376.040 290.503,375.716 290.872 C 375.391 291.242,374.828 292.142,374.463 292.872 C 373.977 293.845,373.533 294.200,372.800 294.200 C 365.126 294.200,348.847 293.423,348.311 293.032 C 347.089 292.139,347.009 290.539,348.133 289.497 C 348.690 288.981,349.262 288.093,349.405 287.524 C 349.548 286.954,350.100 286.109,350.632 285.647 C 351.165 285.184,351.600 284.556,351.600 284.252 C 351.600 283.947,351.880 283.465,352.223 283.181 C 352.566 282.896,353.091 282.079,353.389 281.364 C 353.688 280.649,354.308 279.864,354.766 279.618 C 355.305 279.329,355.600 278.778,355.600 278.056 C 355.600 277.382,355.997 276.567,356.600 276.000 C 357.150 275.483,357.600 274.832,357.600 274.553 C 357.600 274.274,357.934 273.810,358.343 273.523 C 358.751 273.235,359.215 272.589,359.374 272.087 C 359.532 271.585,360.098 270.704,360.631 270.129 C 361.164 269.554,361.600 268.852,361.600 268.570 C 361.600 268.288,361.883 267.774,362.229 267.429 C 362.800 266.857,362.508 266.800,359.019 266.800 C 355.292 266.800,355.169 266.829,354.800 267.800 C 354.591 268.350,354.141 268.800,353.800 268.800 C 353.459 268.800,353.009 269.250,352.800 269.800 C 352.567 270.412,352.106 270.800,351.610 270.800 C 351.117 270.800,350.800 271.064,350.800 271.474 C 350.800 272.689,349.308 273.877,348.020 273.688 C 346.513 273.467,345.724 271.614,346.565 270.270 C 346.865 269.792,347.229 268.724,347.374 267.898 C 347.518 267.073,347.963 266.083,348.362 265.698 C 348.761 265.314,349.217 264.461,349.376 263.802 C 349.534 263.143,349.839 262.394,350.053 262.136 C 350.522 261.571,375.120 261.885,375.856 262.465 M177.700 266.725 C 176.956 266.797,176.400 267.076,176.400 267.377 C 176.400 267.666,176.054 268.149,175.632 268.451 C 175.001 268.902,174.847 269.570,174.767 272.200 C 174.580 278.384,174.681 279.083,175.800 279.364 C 176.350 279.502,176.800 279.792,176.800 280.008 C 176.800 280.632,178.625 280.463,179.921 279.719 C 181.241 278.962,181.594 277.414,181.592 272.400 C 181.590 266.878,181.250 266.383,177.700 266.725 M138.398 268.406 C 138.107 269.289,137.628 270.211,137.334 270.455 C 136.422 271.211,136.604 279.218,137.571 280.877 C 137.995 281.605,138.465 282.875,138.615 283.700 C 138.774 284.567,139.119 285.200,139.435 285.200 C 139.736 285.200,140.271 285.641,140.624 286.180 C 141.740 287.884,144.532 288.017,146.155 286.443 L 147.451 285.187 147.301 278.294 C 147.160 271.805,147.088 271.266,146.075 269.122 L 145.000 266.843 141.964 266.822 L 138.928 266.800 138.398 268.406 M211.683 267.711 C 210.261 269.226,210.319 271.368,211.788 271.535 C 215.024 271.903,217.200 271.230,217.200 269.860 C 217.200 266.907,213.714 265.549,211.683 267.711 M48.500 268.661 C 47.851 268.928,47.808 281.874,48.442 286.138 L 48.884 289.109 50.342 289.350 C 53.886 289.936,57.600 289.522,57.600 288.541 C 57.600 288.230,57.870 287.871,58.200 287.745 C 58.530 287.618,59.340 286.383,60.000 285.000 C 62.278 280.226,61.260 274.175,57.683 271.233 C 56.867 270.562,55.912 269.768,55.561 269.468 C 54.911 268.913,49.415 268.285,48.500 268.661 M322.650 270.050 C 321.875 273.924,322.631 287.493,323.640 287.813 C 324.035 287.938,324.470 288.392,324.606 288.820 C 324.809 289.457,325.223 289.600,326.866 289.600 C 331.842 289.600,333.123 284.611,331.353 272.123 C 331.237 271.305,330.889 270.755,330.386 270.595 C 329.953 270.458,329.413 269.998,329.186 269.573 C 328.834 268.917,328.328 268.800,325.836 268.800 L 322.900 268.800 322.650 270.050 M290.798 280.300 C 290.314 281.125,289.666 281.944,289.359 282.120 C 287.322 283.286,289.611 287.899,291.948 287.339 C 293.392 286.994,293.300 287.261,293.514 282.806 L 293.707 278.800 292.693 278.800 C 291.945 278.800,291.448 279.193,290.798 280.300 M174.634 298.695 C 171.550 299.012,169.793 302.344,171.592 304.466 C 172.027 304.980,172.731 305.850,173.156 306.400 C 173.902 307.367,174.108 307.404,179.399 307.532 L 184.870 307.663 186.298 306.235 C 188.920 303.614,187.925 299.322,184.557 298.723 C 182.932 298.434,177.331 298.418,174.634 298.695 " stroke="none" fill="#fbfbfb" fill-rule="evenodd"></path><path id="path2" d="M252.200 95.622 C 251.320 96.038,250.310 96.384,249.955 96.390 C 249.600 96.395,248.631 96.940,247.800 97.600 C 246.969 98.260,246.121 98.800,245.914 98.800 C 245.437 98.800,242.400 101.940,242.400 102.433 C 242.400 102.635,242.081 103.119,241.692 103.508 C 238.779 106.421,237.081 119.439,239.295 121.885 C 239.678 122.307,240.105 123.226,240.245 123.927 C 240.511 125.254,246.202 131.600,247.127 131.600 C 247.387 131.600,247.944 131.944,248.364 132.364 C 251.119 135.119,264.106 135.088,268.110 132.317 C 270.550 130.627,274.881 126.198,275.654 124.600 C 276.079 123.720,276.696 122.550,277.025 122.000 C 278.098 120.205,277.674 107.672,276.500 106.499 C 276.005 106.005,275.600 105.355,275.600 105.055 C 275.600 103.956,271.322 99.020,270.009 98.603 C 269.550 98.457,268.704 97.902,268.129 97.369 C 267.554 96.836,266.704 96.396,266.242 96.391 C 265.779 96.386,264.615 96.026,263.656 95.591 C 261.235 94.492,254.549 94.510,252.200 95.622 M126.000 136.728 C 121.994 137.837,116.008 143.112,116.001 145.540 C 116.001 145.836,115.706 146.698,115.348 147.454 C 114.989 148.210,114.806 148.940,114.942 149.076 C 115.257 149.390,116.400 146.686,116.400 145.627 C 116.400 145.187,116.910 144.237,117.533 143.514 C 118.155 142.791,118.780 141.885,118.920 141.500 C 119.060 141.115,119.396 140.800,119.666 140.800 C 119.935 140.800,120.616 140.366,121.178 139.835 C 123.554 137.592,132.431 135.633,133.366 137.145 C 133.483 137.335,134.401 137.720,135.406 138.002 C 137.925 138.707,140.813 140.883,142.089 143.037 C 142.467 143.677,142.941 144.470,143.142 144.800 C 145.047 147.933,145.781 153.715,144.478 155.315 C 144.260 155.582,143.848 156.590,143.561 157.556 C 143.082 159.169,140.658 162.017,137.667 164.479 C 133.339 168.042,121.590 166.060,118.655 161.273 C 118.465 160.963,117.968 160.368,117.549 159.949 C 117.131 159.531,116.601 158.311,116.371 157.239 C 115.945 155.254,114.824 153.193,114.827 154.400 C 114.828 154.730,115.086 155.450,115.400 156.000 C 115.714 156.550,115.978 157.381,115.986 157.848 C 116.051 161.741,123.966 166.784,130.027 166.795 C 139.977 166.813,148.772 155.385,144.800 147.600 C 144.360 146.738,144.000 145.800,144.000 145.516 C 144.000 144.905,140.869 140.400,140.444 140.400 C 140.283 140.400,139.781 140.055,139.328 139.633 C 136.636 137.126,129.881 135.653,126.000 136.728 M309.636 142.431 C 307.126 142.638,304.863 142.982,304.607 143.195 C 304.350 143.407,302.812 143.861,301.189 144.202 C 299.566 144.544,297.959 145.074,297.619 145.382 C 297.278 145.689,296.100 146.159,295.000 146.426 C 293.900 146.694,292.697 147.174,292.328 147.493 C 291.648 148.080,289.997 149.054,287.800 150.163 C 287.140 150.496,286.176 151.226,285.658 151.784 C 285.140 152.343,284.537 152.800,284.318 152.800 C 284.100 152.800,283.439 153.295,282.850 153.900 C 282.262 154.505,281.154 155.564,280.390 156.253 C 279.625 156.942,278.010 158.792,276.800 160.363 C 275.590 161.934,274.221 163.710,273.758 164.310 C 273.295 164.909,272.692 166.088,272.418 166.928 C 272.144 167.768,271.668 168.553,271.360 168.671 C 271.052 168.789,270.800 169.105,270.800 169.373 C 270.800 169.641,270.372 170.263,269.848 170.755 L 268.896 171.649 266.148 168.570 C 264.637 166.877,263.056 165.201,262.635 164.846 C 262.215 164.491,260.849 163.300,259.600 162.200 C 256.388 159.371,255.806 158.926,254.319 158.164 C 253.593 157.792,252.910 157.355,252.800 157.192 C 252.690 157.028,251.160 156.234,249.400 155.426 C 247.640 154.618,245.570 153.628,244.800 153.227 C 244.030 152.826,242.410 152.374,241.200 152.222 C 239.990 152.070,238.010 151.649,236.800 151.286 C 233.754 150.370,223.910 150.377,220.800 151.296 C 219.590 151.654,217.430 152.064,216.000 152.207 C 214.570 152.350,212.719 152.812,211.888 153.234 C 211.056 153.655,210.187 154.000,209.956 154.000 C 208.608 154.000,199.139 158.346,196.000 160.405 C 195.010 161.055,193.912 161.725,193.559 161.893 C 191.544 162.858,184.836 169.278,182.376 172.596 C 179.853 176.000,178.000 178.896,178.000 179.438 C 178.000 179.693,177.753 180.107,177.451 180.358 C 177.149 180.609,176.601 181.885,176.234 183.194 C 175.866 184.503,175.394 185.680,175.183 185.811 C 174.269 186.375,174.996 187.746,177.865 190.866 C 181.177 194.469,183.507 197.559,185.400 200.859 C 188.033 205.449,189.346 205.907,189.820 202.400 C 190.081 200.474,192.251 193.687,192.836 192.965 C 193.031 192.726,193.451 191.788,193.772 190.880 C 194.092 189.973,194.700 188.728,195.123 188.115 C 195.546 187.502,196.577 185.933,197.414 184.629 C 200.733 179.461,207.247 173.784,211.927 171.981 C 212.957 171.584,214.430 170.931,215.200 170.530 C 217.758 169.196,231.054 169.467,234.200 170.916 C 242.757 174.860,248.460 179.552,253.097 186.466 C 253.884 187.640,254.850 189.076,255.244 189.657 C 255.638 190.239,256.576 191.873,257.327 193.290 C 258.078 194.706,258.975 196.301,259.320 196.833 C 259.664 197.365,260.072 198.340,260.226 199.000 C 260.379 199.660,260.920 201.010,261.426 202.000 C 261.933 202.990,262.564 204.392,262.829 205.116 C 263.094 205.840,263.659 206.875,264.084 207.416 L 264.858 208.400 273.129 208.360 C 277.678 208.338,281.850 208.195,282.400 208.043 L 283.400 207.766 283.638 199.582 C 283.826 193.150,284.016 191.128,284.529 190.138 C 284.887 189.444,285.373 187.555,285.608 185.938 C 285.843 184.322,286.291 182.370,286.603 181.600 C 286.915 180.830,287.357 179.458,287.586 178.552 C 287.815 177.646,288.362 176.448,288.801 175.889 C 289.241 175.331,289.600 174.497,289.600 174.037 C 289.600 173.577,289.946 172.854,290.370 172.430 C 290.793 172.007,291.358 171.242,291.625 170.730 C 292.233 169.565,292.635 169.084,295.074 166.600 C 297.718 163.906,303.052 160.000,304.086 160.000 C 304.334 160.000,305.721 159.418,307.168 158.707 L 309.800 157.415 318.800 157.366 C 323.750 157.339,328.025 157.291,328.300 157.259 C 329.644 157.101,328.833 143.019,327.457 142.627 C 325.881 142.178,314.254 142.050,309.636 142.431 M114.514 151.800 C 114.517 152.900,114.595 153.303,114.687 152.695 C 114.779 152.086,114.777 151.186,114.682 150.695 C 114.587 150.203,114.511 150.700,114.514 151.800 M77.871 162.475 L 76.742 162.886 76.871 168.676 C 77.029 175.757,76.692 175.390,83.336 175.727 C 87.936 175.960,89.245 176.212,90.800 177.166 C 91.130 177.368,92.008 177.760,92.750 178.036 C 95.984 179.240,102.400 185.499,102.400 187.451 C 102.400 187.722,102.688 188.231,103.040 188.583 C 103.392 188.935,103.930 190.523,104.235 192.112 L 104.791 195.000 104.572 192.467 C 104.355 189.959,103.744 188.000,103.179 188.000 C 103.018 188.000,102.766 187.520,102.619 186.934 C 101.878 183.980,95.664 178.225,92.316 177.391 C 91.720 177.243,91.027 176.874,90.776 176.571 C 90.176 175.848,88.622 175.581,83.153 175.263 C 77.546 174.938,77.612 175.018,77.612 168.400 C 77.612 162.685,77.628 162.660,81.285 162.365 L 84.200 162.129 81.600 162.096 C 80.170 162.078,78.492 162.248,77.871 162.475 M88.016 163.388 C 88.340 163.711,90.043 164.184,91.802 164.439 C 93.561 164.693,95.282 165.147,95.626 165.446 C 95.970 165.745,96.870 166.201,97.626 166.459 C 98.382 166.717,99.413 167.247,99.919 167.636 C 100.424 168.026,101.369 168.461,102.019 168.604 C 102.668 168.747,103.200 169.027,103.200 169.227 C 103.200 169.427,103.965 170.069,104.900 170.655 C 106.879 171.894,113.010 178.092,113.847 179.700 C 114.163 180.305,114.582 180.800,114.778 180.800 C 114.975 180.800,115.250 181.318,115.389 181.951 C 115.528 182.584,116.082 183.699,116.621 184.428 C 117.159 185.158,117.604 186.215,117.609 186.778 C 117.614 187.340,117.966 188.567,118.392 189.506 C 118.817 190.444,119.285 191.884,119.430 192.706 C 119.575 193.527,120.031 195.640,120.444 197.400 C 120.887 199.291,121.196 202.094,121.197 204.253 C 121.201 208.689,121.801 208.387,112.949 208.395 C 105.313 208.401,105.508 208.508,106.018 204.592 C 106.445 201.320,106.131 197.416,105.327 196.000 L 104.760 195.000 104.990 196.200 C 105.608 199.434,105.677 202.671,105.184 205.286 C 104.440 209.230,104.379 209.200,113.044 209.200 C 122.549 209.200,122.195 209.502,121.594 201.898 C 121.122 195.913,118.514 186.079,116.826 183.917 C 116.432 183.413,115.970 182.554,115.799 182.008 C 114.859 179.011,105.164 169.206,102.058 168.110 C 101.696 167.983,101.130 167.659,100.800 167.390 C 100.470 167.121,99.480 166.672,98.600 166.392 C 97.720 166.113,96.593 165.567,96.095 165.181 C 95.598 164.794,94.133 164.355,92.840 164.205 C 91.548 164.055,89.999 163.677,89.399 163.366 C 87.973 162.626,87.266 162.637,88.016 163.388 " stroke="none" fill="#b09b17" fill-rule="evenodd"></path><path id="path3" d="M124.600 137.868 C 123.280 138.417,121.750 139.275,121.200 139.774 C 120.650 140.274,119.885 140.793,119.500 140.929 C 119.115 141.064,118.800 141.382,118.800 141.635 C 118.800 141.888,118.260 142.709,117.600 143.461 C 116.940 144.213,116.400 145.234,116.400 145.729 C 116.400 146.225,116.040 147.337,115.600 148.200 C 114.655 150.054,114.543 153.234,115.378 154.514 C 115.696 155.001,116.147 156.256,116.380 157.302 C 116.613 158.348,117.143 159.543,117.557 159.957 C 117.971 160.371,118.465 160.963,118.655 161.273 C 121.590 166.060,133.339 168.042,137.667 164.479 C 140.658 162.017,143.082 159.169,143.561 157.556 C 143.848 156.590,144.260 155.582,144.478 155.315 C 145.781 153.715,145.047 147.933,143.142 144.800 C 142.941 144.470,142.467 143.677,142.089 143.037 C 140.813 140.883,137.925 138.707,135.406 138.002 C 134.401 137.720,133.483 137.335,133.366 137.145 C 132.884 136.366,127.057 136.846,124.600 137.868 M78.282 162.975 C 77.716 163.541,77.601 164.455,77.606 168.329 C 77.614 175.028,77.541 174.937,83.153 175.263 C 88.622 175.581,90.176 175.848,90.776 176.571 C 91.027 176.874,91.720 177.243,92.316 177.391 C 95.664 178.225,101.878 183.980,102.619 186.934 C 102.766 187.520,103.018 188.000,103.179 188.000 C 103.726 188.000,104.352 189.927,104.630 192.467 C 104.782 193.860,105.129 195.450,105.400 196.000 C 106.143 197.506,106.427 201.457,106.018 204.592 C 105.508 208.508,105.313 208.401,112.949 208.395 C 121.801 208.387,121.201 208.689,121.197 204.253 C 121.196 202.094,120.887 199.291,120.444 197.400 C 120.031 195.640,119.575 193.527,119.430 192.706 C 119.285 191.884,118.817 190.444,118.392 189.506 C 117.966 188.567,117.614 187.340,117.609 186.778 C 117.604 186.215,117.159 185.158,116.621 184.428 C 116.082 183.699,115.528 182.584,115.389 181.951 C 115.250 181.318,114.975 180.800,114.778 180.800 C 114.582 180.800,114.163 180.305,113.847 179.700 C 113.010 178.092,106.879 171.894,104.900 170.655 C 103.965 170.069,103.200 169.427,103.200 169.227 C 103.200 169.027,102.668 168.747,102.019 168.604 C 101.369 168.461,100.424 168.026,99.919 167.636 C 99.413 167.247,98.382 166.717,97.626 166.459 C 96.870 166.201,95.970 165.745,95.626 165.446 C 95.282 165.147,93.570 164.695,91.821 164.442 C 90.073 164.189,88.328 163.697,87.943 163.349 C 86.841 162.351,79.202 162.055,78.282 162.975 " stroke="none" fill="#db610c" fill-rule="evenodd"></path><path id="path4" d="M253.800 93.973 C 252.700 94.143,250.875 94.804,249.744 95.442 C 248.613 96.079,246.985 96.990,246.126 97.466 C 241.931 99.793,238.171 105.831,237.527 111.273 C 236.770 117.678,238.001 123.515,240.758 126.593 C 241.156 127.037,241.581 127.687,241.704 128.038 C 241.974 128.811,246.108 132.400,246.727 132.400 C 246.969 132.400,247.580 132.828,248.084 133.352 C 248.726 134.019,249.648 134.385,251.164 134.574 C 252.355 134.723,253.700 135.105,254.153 135.422 C 254.706 135.810,256.039 136.000,258.200 136.000 C 260.361 136.000,261.694 135.810,262.247 135.422 C 262.700 135.105,264.027 134.718,265.195 134.563 C 266.384 134.405,267.636 133.964,268.038 133.562 C 268.434 133.166,269.268 132.579,269.891 132.256 C 271.228 131.565,276.400 126.212,276.400 125.520 C 276.400 125.258,276.895 124.329,277.500 123.455 L 278.600 121.868 278.600 114.560 L 278.600 107.252 277.552 106.126 C 276.975 105.507,276.396 104.550,276.265 104.000 C 275.953 102.684,271.780 98.166,270.000 97.217 C 264.429 94.244,263.841 94.051,259.765 93.854 C 257.584 93.749,254.900 93.802,253.800 93.973 M263.656 95.591 C 264.615 96.026,265.779 96.386,266.242 96.391 C 266.704 96.396,267.554 96.836,268.129 97.369 C 268.704 97.902,269.550 98.457,270.009 98.603 C 271.322 99.020,275.600 103.956,275.600 105.055 C 275.600 105.355,276.005 106.005,276.500 106.499 C 277.674 107.672,278.098 120.205,277.025 122.000 C 276.696 122.550,276.079 123.720,275.654 124.600 C 274.881 126.198,270.550 130.627,268.110 132.317 C 264.106 135.088,251.119 135.119,248.364 132.364 C 247.944 131.944,247.387 131.600,247.127 131.600 C 246.202 131.600,240.511 125.254,240.245 123.927 C 240.105 123.226,239.678 122.307,239.295 121.885 C 237.081 119.439,238.779 106.421,241.692 103.508 C 242.081 103.119,242.400 102.635,242.400 102.433 C 242.400 101.940,245.437 98.800,245.914 98.800 C 246.121 98.800,246.969 98.260,247.800 97.600 C 248.631 96.940,249.600 96.395,249.955 96.390 C 250.310 96.384,251.320 96.038,252.200 95.622 C 254.549 94.510,261.235 94.492,263.656 95.591 M126.800 135.954 C 123.015 136.472,116.366 141.396,115.779 144.117 C 115.627 144.823,115.164 146.068,114.751 146.884 C 113.674 149.011,113.701 154.246,114.800 156.400 C 115.240 157.262,115.600 158.320,115.600 158.750 C 115.600 159.180,115.958 159.952,116.396 160.466 C 116.834 160.980,117.570 161.899,118.031 162.508 C 118.493 163.117,119.440 163.907,120.135 164.262 C 120.831 164.618,121.535 165.138,121.701 165.420 C 123.428 168.359,136.819 168.153,138.420 165.164 C 138.644 164.744,139.058 164.400,139.338 164.400 C 140.101 164.400,143.633 160.405,144.289 158.800 C 144.603 158.030,145.207 156.668,145.630 155.774 C 146.851 153.195,146.681 149.569,145.200 146.600 C 144.542 145.280,144.002 143.984,144.002 143.720 C 144.001 143.456,143.775 143.096,143.499 142.920 C 143.224 142.744,142.751 142.119,142.449 141.532 C 141.948 140.560,138.172 137.600,137.432 137.600 C 137.263 137.600,136.646 137.264,136.062 136.854 C 134.873 136.018,129.877 135.533,126.800 135.954 M136.353 137.760 C 137.536 138.369,138.875 139.212,139.328 139.633 C 139.781 140.055,140.283 140.400,140.444 140.400 C 140.869 140.400,144.000 144.905,144.000 145.516 C 144.000 145.800,144.360 146.738,144.800 147.600 C 147.809 153.498,142.178 163.977,134.827 166.156 C 127.295 168.389,117.570 164.116,115.979 157.874 C 115.801 157.173,115.354 155.790,114.988 154.800 C 114.296 152.934,114.399 148.771,115.161 147.841 C 115.359 147.598,115.720 146.660,115.961 145.756 C 117.910 138.466,129.152 134.058,136.353 137.760 M315.830 140.819 C 315.186 141.011,312.126 141.368,309.030 141.612 C 305.136 141.918,302.860 142.293,301.649 142.828 C 300.686 143.252,299.609 143.600,299.255 143.600 C 298.901 143.600,297.709 144.036,296.606 144.570 C 295.503 145.103,294.099 145.648,293.487 145.781 C 292.874 145.913,292.069 146.377,291.698 146.811 C 291.326 147.245,290.766 147.600,290.453 147.600 C 289.843 147.600,285.792 150.165,285.401 150.799 C 285.272 151.008,284.543 151.474,283.781 151.836 C 282.090 152.638,276.937 158.043,274.915 161.136 C 274.100 162.381,273.021 163.796,272.517 164.281 C 272.013 164.765,271.600 165.549,271.600 166.023 C 271.600 166.497,271.195 167.381,270.700 167.989 C 270.205 168.596,269.611 169.415,269.380 169.808 C 268.833 170.742,267.234 169.797,266.008 167.814 C 264.058 164.658,255.148 157.632,249.886 155.100 C 244.251 152.388,243.272 152.015,241.200 151.785 C 239.990 151.651,238.190 151.239,237.200 150.870 C 234.869 150.002,223.384 149.903,221.200 150.731 C 220.430 151.024,218.180 151.494,216.200 151.776 C 214.220 152.058,211.700 152.659,210.600 153.111 C 209.500 153.563,207.250 154.431,205.600 155.041 C 203.950 155.650,202.318 156.383,201.974 156.669 C 201.630 156.956,200.730 157.403,199.974 157.664 C 199.218 157.925,198.150 158.438,197.600 158.806 C 197.050 159.173,195.552 160.177,194.270 161.037 C 192.989 161.897,191.386 162.960,190.708 163.400 C 189.122 164.429,183.395 170.180,182.143 172.000 C 181.614 172.770,180.645 174.120,179.991 175.000 C 179.337 175.880,178.439 177.320,177.995 178.200 C 177.552 179.080,176.935 180.250,176.625 180.800 C 176.314 181.350,175.859 182.566,175.614 183.502 C 174.894 186.242,173.621 186.800,171.651 185.240 C 170.790 184.558,169.910 184.000,169.697 184.000 C 169.484 184.000,168.872 183.563,168.338 183.028 C 167.803 182.494,166.834 181.928,166.183 181.770 C 165.532 181.612,164.548 181.168,163.996 180.783 C 163.444 180.398,162.184 179.867,161.196 179.602 C 160.208 179.338,159.220 178.980,159.000 178.807 C 156.748 177.035,136.881 177.051,132.849 178.828 C 131.886 179.253,130.786 179.600,130.405 179.600 C 130.024 179.600,129.049 180.050,128.238 180.600 C 127.428 181.150,126.441 181.600,126.047 181.600 C 125.652 181.600,124.715 182.057,123.964 182.616 C 123.214 183.175,121.801 184.149,120.825 184.781 L 119.050 185.930 117.725 184.067 C 116.996 183.041,116.400 181.918,116.400 181.571 C 116.400 181.224,115.950 180.517,115.400 180.000 C 114.850 179.483,114.400 178.835,114.400 178.559 C 114.400 177.932,106.658 170.000,106.047 170.000 C 105.801 170.000,105.279 169.685,104.887 169.300 C 103.750 168.183,100.349 166.226,98.500 165.625 C 97.565 165.321,96.800 164.938,96.800 164.775 C 96.800 164.317,94.436 163.600,92.924 163.600 C 92.178 163.600,90.900 163.264,90.084 162.853 C 88.283 161.945,86.165 161.628,81.305 161.537 C 75.931 161.436,76.000 161.339,76.000 169.013 C 76.000 176.592,75.500 176.078,83.198 176.413 C 87.820 176.613,89.267 176.809,89.760 177.303 C 90.108 177.651,91.049 178.152,91.851 178.417 C 96.829 180.060,103.583 187.953,103.607 192.156 C 103.611 192.840,103.880 195.110,104.204 197.200 C 104.689 200.329,104.710 201.683,104.322 204.869 C 103.657 210.319,103.122 210.001,112.949 209.994 C 117.377 209.991,121.181 209.856,121.402 209.694 C 122.385 208.976,124.508 205.796,126.273 202.400 C 126.673 201.630,127.315 200.765,127.700 200.477 C 128.085 200.190,128.400 199.701,128.400 199.391 C 128.400 199.082,128.746 198.643,129.169 198.417 C 129.591 198.191,130.784 197.194,131.819 196.203 C 132.853 195.211,134.006 194.400,134.380 194.400 C 134.754 194.400,135.483 193.950,136.000 193.400 C 136.517 192.850,137.273 192.400,137.680 192.400 C 138.087 192.400,139.444 192.040,140.696 191.600 C 143.632 190.568,147.434 190.570,150.736 191.605 C 152.130 192.042,153.678 192.400,154.174 192.400 C 154.671 192.400,155.498 192.765,156.013 193.211 C 156.527 193.657,157.409 194.134,157.974 194.271 C 160.339 194.846,169.041 203.484,169.790 206.000 C 169.953 206.550,170.734 207.675,171.525 208.500 L 172.962 210.000 180.205 210.000 C 189.269 210.000,188.687 210.484,190.551 201.400 C 191.197 198.250,192.443 194.536,193.324 193.135 C 193.647 192.621,194.138 191.485,194.416 190.611 C 194.694 189.737,195.131 188.812,195.388 188.555 C 195.645 188.298,196.624 186.815,197.564 185.260 C 199.300 182.387,203.929 177.326,206.299 175.711 C 208.051 174.517,212.819 172.000,213.329 172.000 C 213.553 172.000,214.042 171.724,214.416 171.386 C 216.355 169.630,229.994 169.665,233.968 171.435 C 237.581 173.045,240.520 174.544,241.742 175.400 C 244.945 177.643,253.600 186.770,253.600 187.905 C 253.600 188.118,253.941 188.725,254.357 189.254 C 255.922 191.244,260.000 198.938,260.000 199.901 C 260.000 200.233,260.345 201.067,260.766 201.753 C 261.188 202.439,261.662 203.720,261.819 204.600 C 262.698 209.514,262.909 209.600,274.056 209.600 C 285.478 209.600,284.300 210.588,284.618 200.744 C 284.771 196.034,285.058 192.826,285.419 191.800 C 285.728 190.920,286.168 188.872,286.397 187.248 C 286.625 185.624,287.077 183.734,287.400 183.048 C 287.724 182.362,288.169 180.841,288.390 179.669 C 288.611 178.497,289.141 177.093,289.568 176.550 C 289.995 176.007,290.471 174.986,290.626 174.281 C 290.781 173.577,291.243 172.765,291.654 172.477 C 292.064 172.190,292.400 171.714,292.400 171.421 C 292.400 170.507,300.852 162.400,301.805 162.400 C 302.073 162.400,302.728 162.057,303.260 161.639 C 303.793 161.220,304.979 160.675,305.896 160.428 C 306.813 160.181,307.874 159.669,308.253 159.289 C 309.069 158.474,322.798 158.049,326.917 158.711 C 330.006 159.208,330.000 159.224,330.000 150.275 C 330.000 141.453,330.545 142.220,323.545 141.190 C 317.656 140.324,317.509 140.317,315.830 140.819 M327.457 142.627 C 328.833 143.019,329.644 157.101,328.300 157.259 C 328.025 157.291,323.750 157.339,318.800 157.366 L 309.800 157.415 307.168 158.707 C 305.721 159.418,304.334 160.000,304.086 160.000 C 303.052 160.000,297.718 163.906,295.074 166.600 C 292.635 169.084,292.233 169.565,291.625 170.730 C 291.358 171.242,290.793 172.007,290.370 172.430 C 289.946 172.854,289.600 173.577,289.600 174.037 C 289.600 174.497,289.241 175.331,288.801 175.889 C 288.362 176.448,287.815 177.646,287.586 178.552 C 287.357 179.458,286.915 180.830,286.603 181.600 C 286.291 182.370,285.843 184.322,285.608 185.938 C 285.373 187.555,284.887 189.444,284.529 190.138 C 284.016 191.128,283.826 193.150,283.638 199.582 L 283.400 207.766 282.400 208.043 C 281.850 208.195,277.678 208.338,273.129 208.360 L 264.858 208.400 264.084 207.416 C 263.659 206.875,263.094 205.840,262.829 205.116 C 262.564 204.392,261.933 202.990,261.426 202.000 C 260.920 201.010,260.379 199.660,260.226 199.000 C 260.072 198.340,259.664 197.365,259.320 196.833 C 258.975 196.301,258.078 194.706,257.327 193.290 C 256.576 191.873,255.638 190.239,255.244 189.657 C 254.850 189.076,253.884 187.640,253.097 186.466 C 248.460 179.552,242.757 174.860,234.200 170.916 C 231.054 169.467,217.758 169.196,215.200 170.530 C 214.430 170.931,212.957 171.584,211.927 171.981 C 207.247 173.784,200.733 179.461,197.414 184.629 C 196.577 185.933,195.546 187.502,195.123 188.115 C 194.700 188.728,194.092 189.973,193.772 190.880 C 193.451 191.788,193.031 192.726,192.836 192.965 C 192.251 193.687,190.081 200.474,189.820 202.400 C 189.346 205.907,188.033 205.449,185.400 200.859 C 183.507 197.559,181.177 194.469,177.865 190.866 C 174.996 187.746,174.269 186.375,175.183 185.811 C 175.394 185.680,175.866 184.503,176.234 183.194 C 176.601 181.885,177.149 180.609,177.451 180.358 C 177.753 180.107,178.000 179.693,178.000 179.438 C 178.000 178.896,179.853 176.000,182.376 172.596 C 184.836 169.278,191.544 162.858,193.559 161.893 C 193.912 161.725,195.010 161.055,196.000 160.405 C 199.139 158.346,208.608 154.000,209.956 154.000 C 210.187 154.000,211.056 153.655,211.888 153.234 C 212.719 152.812,214.570 152.350,216.000 152.207 C 217.430 152.064,219.590 151.654,220.800 151.296 C 223.910 150.377,233.754 150.370,236.800 151.286 C 238.010 151.649,239.990 152.070,241.200 152.222 C 242.410 152.374,244.030 152.826,244.800 153.227 C 245.570 153.628,247.640 154.618,249.400 155.426 C 251.160 156.234,252.690 157.028,252.800 157.192 C 252.910 157.355,253.593 157.792,254.319 158.164 C 255.806 158.926,256.388 159.371,259.600 162.200 C 260.849 163.300,262.215 164.491,262.635 164.846 C 263.056 165.201,264.637 166.877,266.148 168.570 L 268.896 171.649 269.848 170.755 C 270.372 170.263,270.800 169.641,270.800 169.373 C 270.800 169.105,271.052 168.789,271.360 168.671 C 271.668 168.553,272.144 167.768,272.418 166.928 C 272.692 166.088,273.295 164.909,273.758 164.310 C 274.221 163.710,275.590 161.934,276.800 160.363 C 278.010 158.792,279.625 156.942,280.390 156.253 C 281.154 155.564,282.262 154.505,282.850 153.900 C 283.439 153.295,284.100 152.800,284.318 152.800 C 284.537 152.800,285.140 152.343,285.658 151.784 C 286.176 151.226,287.140 150.496,287.800 150.163 C 289.997 149.054,291.648 148.080,292.328 147.493 C 292.697 147.174,293.900 146.694,295.000 146.426 C 296.100 146.159,297.278 145.689,297.619 145.382 C 297.959 145.074,299.566 144.544,301.189 144.202 C 302.812 143.861,304.350 143.407,304.607 143.195 C 305.741 142.253,324.508 141.787,327.457 142.627 M85.633 162.397 C 87.081 162.606,88.766 163.037,89.378 163.355 C 89.990 163.672,91.548 164.055,92.840 164.205 C 94.133 164.355,95.598 164.794,96.095 165.181 C 96.593 165.567,97.720 166.113,98.600 166.392 C 99.480 166.672,100.470 167.121,100.800 167.390 C 101.130 167.659,101.696 167.983,102.058 168.110 C 105.164 169.206,114.859 179.011,115.799 182.008 C 115.970 182.554,116.432 183.413,116.826 183.917 C 118.514 186.079,121.122 195.913,121.594 201.898 C 122.195 209.502,122.549 209.200,113.044 209.200 C 104.388 209.200,104.440 209.226,105.179 205.313 C 105.942 201.266,104.501 190.044,103.028 188.571 C 102.683 188.226,102.400 187.722,102.400 187.451 C 102.400 185.499,95.984 179.240,92.750 178.036 C 92.008 177.760,91.130 177.368,90.800 177.166 C 89.245 176.212,87.936 175.960,83.336 175.727 C 76.692 175.390,77.029 175.757,76.871 168.676 L 76.742 162.886 77.871 162.475 C 79.323 161.945,82.306 161.915,85.633 162.397 M151.400 240.268 C 150.520 240.616,148.244 241.021,146.342 241.167 C 142.744 241.443,141.600 241.953,141.600 243.280 C 141.600 244.221,143.681 246.400,144.579 246.400 C 145.812 246.400,146.522 249.642,147.050 257.683 C 147.319 261.785,147.739 261.491,141.328 261.696 C 138.417 261.789,137.048 262.000,136.528 262.436 C 136.127 262.771,135.300 263.259,134.689 263.519 C 134.078 263.780,133.473 264.265,133.346 264.597 C 133.219 264.928,132.877 265.200,132.588 265.200 C 131.829 265.200,129.600 267.168,129.600 267.838 C 129.600 268.150,129.152 268.794,128.605 269.270 C 128.057 269.747,127.499 270.777,127.361 271.567 C 127.223 272.355,126.824 273.450,126.474 274.000 C 125.184 276.027,125.446 284.800,126.797 284.800 C 126.963 284.800,127.214 285.525,127.355 286.412 C 127.546 287.600,127.874 288.142,128.607 288.476 C 129.153 288.725,129.600 289.163,129.600 289.450 C 129.600 289.737,129.956 290.162,130.391 290.395 C 130.826 290.628,131.628 291.264,132.173 291.809 C 132.718 292.354,133.433 292.800,133.762 292.800 C 134.091 292.800,134.535 293.113,134.750 293.496 C 135.397 294.653,141.314 294.762,142.826 293.644 C 143.454 293.180,144.257 292.800,144.610 292.800 C 145.590 292.800,146.800 292.038,146.800 291.421 C 146.800 290.444,148.963 291.587,149.943 293.081 C 150.874 294.502,151.775 294.592,153.200 293.406 C 153.530 293.131,154.843 292.790,156.118 292.647 C 162.157 291.974,165.370 287.200,159.785 287.200 C 158.272 287.200,158.190 285.810,158.330 262.477 C 158.429 246.030,158.344 240.614,157.981 240.177 C 157.333 239.396,153.469 239.450,151.400 240.268 M318.983 240.394 C 318.546 240.831,317.323 241.351,316.264 241.548 C 315.103 241.765,314.119 242.223,313.784 242.702 C 313.391 243.263,312.612 243.555,311.125 243.698 C 307.162 244.078,305.313 247.634,308.553 248.644 C 309.019 248.789,309.850 249.354,310.400 249.899 L 311.400 250.890 311.600 272.145 C 311.710 283.835,311.946 293.625,312.124 293.900 C 312.609 294.649,314.161 294.503,315.309 293.600 C 316.648 292.547,319.882 292.486,320.623 293.500 C 321.357 294.504,329.928 294.541,331.057 293.545 C 331.466 293.184,332.386 292.764,333.103 292.612 C 333.820 292.460,334.591 291.990,334.817 291.567 C 335.043 291.145,335.597 290.800,336.047 290.800 C 337.019 290.800,340.800 286.962,340.800 285.975 C 340.800 285.603,341.161 285.051,341.602 284.749 C 342.142 284.379,342.488 283.549,342.663 282.200 C 342.806 281.100,343.089 280.091,343.291 279.958 C 344.411 279.222,344.487 275.147,343.413 273.400 C 343.142 272.960,342.823 271.725,342.705 270.655 C 342.569 269.439,342.173 268.390,341.646 267.855 C 341.182 267.385,340.117 266.235,339.278 265.300 C 338.440 264.365,337.563 263.600,337.331 263.600 C 337.098 263.600,336.402 263.202,335.783 262.715 C 334.098 261.389,327.973 261.159,325.523 262.330 C 322.454 263.796,322.683 264.648,322.777 252.078 C 322.839 243.753,322.735 240.604,322.382 240.178 C 321.696 239.351,319.913 239.465,318.983 240.394 M157.016 240.795 C 157.299 240.798,157.274 242.235,156.936 245.300 C 156.621 248.148,156.432 256.133,156.420 267.049 C 156.396 287.955,156.375 287.851,160.600 288.490 C 161.829 288.676,161.551 289.736,160.200 290.017 C 159.540 290.154,158.438 290.559,157.750 290.917 C 157.063 291.276,155.274 291.764,153.776 292.004 L 151.051 292.439 150.096 291.220 C 148.952 289.757,147.459 289.617,146.147 290.850 C 144.367 292.522,138.232 293.251,135.178 292.153 C 132.715 291.268,128.405 287.290,128.391 285.890 C 128.386 285.401,128.026 284.215,127.591 283.256 C 126.573 281.013,126.577 277.989,127.600 275.296 C 128.040 274.138,128.400 272.673,128.400 272.039 C 128.400 270.535,134.059 264.574,135.834 264.208 C 136.475 264.076,137.510 263.705,138.132 263.384 C 139.463 262.698,144.219 262.599,145.862 263.224 C 147.773 263.950,148.000 263.127,148.000 255.471 C 148.000 247.717,147.785 247.044,144.569 244.735 C 141.902 242.819,142.188 242.544,147.100 242.297 C 150.293 242.136,151.863 241.864,153.200 241.239 C 154.190 240.775,155.360 240.485,155.800 240.593 C 156.240 240.701,156.787 240.792,157.016 240.795 M321.821 240.910 C 321.929 241.191,321.864 246.366,321.678 252.410 C 321.252 266.206,321.011 265.572,325.992 263.776 C 339.299 258.976,348.477 276.476,338.352 287.344 C 337.938 287.788,337.600 288.292,337.600 288.465 C 337.600 288.638,337.015 289.075,336.300 289.437 C 335.585 289.798,334.640 290.415,334.200 290.807 C 332.139 292.645,326.150 293.234,320.603 292.144 C 317.479 291.530,317.128 291.532,315.172 292.171 C 312.262 293.123,312.413 294.258,312.406 271.326 C 312.399 248.496,312.475 249.149,309.705 247.953 L 307.800 247.130 309.154 245.991 C 309.898 245.365,311.222 244.731,312.096 244.584 C 312.970 244.436,314.023 243.977,314.437 243.563 C 314.850 243.150,315.932 242.692,316.840 242.547 C 317.748 242.402,318.966 241.865,319.546 241.354 C 320.731 240.309,321.531 240.154,321.821 240.910 M30.093 242.067 C 29.461 242.699,29.450 245.860,30.078 246.248 C 30.341 246.410,31.532 246.592,32.725 246.652 C 33.918 246.712,35.008 246.875,35.147 247.014 C 35.286 247.153,35.400 256.446,35.400 267.665 C 35.400 290.537,35.580 289.200,32.497 289.200 C 29.750 289.200,28.544 291.318,30.391 292.899 C 31.950 294.235,59.372 294.768,61.305 293.500 C 61.892 293.115,63.053 292.800,63.886 292.799 C 64.719 292.799,66.030 292.449,66.800 292.022 C 67.570 291.595,68.688 291.040,69.284 290.789 C 69.880 290.538,70.490 289.943,70.641 289.467 C 70.792 288.990,71.242 288.370,71.641 288.089 C 72.041 287.807,72.490 286.928,72.639 286.134 C 72.788 285.340,73.245 284.355,73.655 283.945 C 74.779 282.821,74.740 276.541,73.600 275.091 C 73.160 274.531,72.800 273.793,72.800 273.451 C 72.800 272.936,71.846 271.691,70.087 269.909 C 68.747 268.552,67.344 267.607,66.341 267.387 C 65.684 267.243,65.047 266.866,64.926 266.550 C 64.804 266.234,64.231 265.718,63.653 265.404 L 62.600 264.832 63.693 264.816 C 64.698 264.801,66.042 263.873,68.059 261.800 C 70.783 259.001,70.591 259.528,70.730 254.493 C 70.864 249.630,70.476 247.600,69.410 247.600 C 69.074 247.600,68.800 247.360,68.800 247.066 C 68.800 246.009,65.617 243.600,64.221 243.600 C 63.465 243.600,62.423 243.218,61.764 242.700 C 60.387 241.616,31.129 241.031,30.093 242.067 M232.262 242.331 C 230.567 244.204,231.849 246.160,235.053 246.588 C 237.732 246.946,237.590 245.726,237.596 268.519 L 237.600 287.238 236.542 288.219 C 235.882 288.830,235.007 289.200,234.218 289.200 C 232.411 289.200,231.503 289.990,231.666 291.420 C 231.899 293.470,232.706 293.552,252.825 293.577 C 272.898 293.602,272.800 293.615,272.800 291.078 C 272.800 290.589,273.171 289.496,273.624 288.651 C 274.077 287.805,274.555 286.188,274.685 285.057 C 274.815 283.926,275.255 282.373,275.661 281.606 C 276.982 279.114,276.558 277.917,274.204 277.491 C 272.653 277.210,271.758 277.715,271.420 279.063 C 271.270 279.659,270.711 280.698,270.178 281.373 C 269.644 282.048,268.890 283.027,268.504 283.549 C 265.251 287.934,262.221 289.200,254.975 289.200 L 250.572 289.200 249.801 287.900 C 248.175 285.157,248.874 247.881,250.575 246.706 C 250.809 246.544,251.917 246.409,253.038 246.406 C 256.154 246.397,257.711 243.763,255.511 242.223 C 254.055 241.203,233.195 241.300,232.262 242.331 M59.800 243.260 C 60.460 243.608,61.948 244.116,63.107 244.388 C 64.791 244.784,65.668 245.326,67.470 247.086 L 69.726 249.288 69.895 253.144 C 70.104 257.900,66.775 263.600,63.789 263.600 C 63.514 263.600,62.872 263.937,62.364 264.349 L 61.439 265.098 62.819 266.391 C 63.579 267.102,64.773 267.932,65.474 268.236 C 68.797 269.678,71.160 271.985,71.994 274.600 C 72.275 275.480,72.640 276.380,72.807 276.600 C 74.195 278.435,73.091 283.691,70.507 287.556 C 70.008 288.302,69.600 289.063,69.600 289.248 C 69.600 289.433,69.105 289.708,68.500 289.858 C 67.895 290.009,66.944 290.467,66.388 290.876 C 65.026 291.878,59.079 292.616,53.000 292.539 C 39.299 292.364,30.852 291.912,30.633 291.341 C 30.382 290.687,30.716 290.545,33.155 290.264 C 36.145 289.919,36.150 289.904,36.517 279.890 C 36.696 275.001,36.723 265.564,36.576 258.921 C 36.270 245.061,36.396 245.511,32.828 245.538 C 30.697 245.555,29.909 244.657,30.560 242.959 C 30.925 242.008,57.952 242.287,59.800 243.260 M254.215 242.881 C 255.031 243.699,253.967 245.200,252.573 245.200 C 250.893 245.200,248.985 246.107,248.412 247.178 C 247.710 248.489,247.859 288.454,248.569 289.424 C 249.531 290.737,261.964 290.535,264.166 289.171 C 265.718 288.208,270.000 284.107,270.000 283.583 C 270.000 283.433,270.540 282.631,271.200 281.800 C 271.860 280.969,272.400 279.965,272.400 279.569 C 272.400 278.621,272.771 278.429,274.111 278.685 C 274.907 278.837,275.107 279.030,274.825 279.370 C 274.608 279.631,274.227 281.184,273.977 282.822 C 273.727 284.460,273.180 286.361,272.761 287.047 C 272.342 287.733,272.000 288.926,272.000 289.698 C 272.000 290.470,271.754 291.306,271.454 291.555 C 270.530 292.322,232.600 291.981,232.600 291.205 C 232.600 290.797,233.218 290.521,234.565 290.329 C 238.442 289.774,238.184 291.330,238.311 267.732 C 238.434 244.643,238.592 245.925,235.569 245.441 C 234.152 245.215,233.200 244.234,233.200 243.002 C 233.200 242.437,253.655 242.320,254.215 242.881 M47.755 245.517 C 46.534 246.632,46.531 246.644,46.266 252.180 C 45.750 262.931,45.789 263.244,47.926 265.584 L 49.049 266.813 49.989 265.811 C 50.632 265.127,51.542 264.729,52.865 264.554 C 55.360 264.223,58.231 262.086,58.627 260.265 C 58.778 259.569,59.149 258.645,59.451 258.211 C 60.207 257.124,60.181 252.392,59.413 251.376 C 59.090 250.949,58.820 250.278,58.813 249.884 C 58.786 248.401,55.654 246.140,52.384 245.244 C 48.646 244.220,49.212 244.186,47.755 245.517 M111.491 246.400 C 110.931 246.840,110.301 247.200,110.091 247.200 C 109.880 247.200,109.234 247.573,108.654 248.029 C 107.155 249.208,107.108 254.800,108.596 254.800 C 108.877 254.800,109.199 255.152,109.311 255.582 C 109.431 256.038,109.991 256.464,110.658 256.606 C 111.286 256.739,112.063 256.987,112.384 257.157 C 112.705 257.328,113.425 257.326,113.984 257.154 C 114.543 256.981,115.626 256.691,116.392 256.508 C 117.346 256.279,117.974 255.802,118.392 254.987 C 118.726 254.334,119.225 253.656,119.500 253.480 C 120.197 253.034,120.126 250.183,119.400 249.457 C 119.070 249.127,118.800 248.695,118.800 248.496 C 118.800 246.690,113.173 245.077,111.491 246.400 M55.670 247.798 C 56.104 248.349,56.715 248.800,57.029 248.800 C 57.359 248.800,57.600 249.191,57.600 249.727 C 57.600 250.237,57.877 251.587,58.215 252.727 C 58.769 254.593,58.769 255.007,58.215 256.873 C 57.877 258.013,57.600 259.457,57.600 260.083 C 57.600 260.917,57.343 261.318,56.632 261.588 C 56.100 261.790,55.494 262.261,55.285 262.633 C 54.980 263.180,54.258 263.319,51.553 263.355 L 48.200 263.400 48.091 255.229 C 47.966 245.768,47.747 246.260,51.941 246.575 C 54.461 246.765,54.995 246.940,55.670 247.798 M115.004 247.206 C 115.142 247.429,115.849 247.860,116.575 248.164 C 119.143 249.237,118.724 253.991,115.934 255.434 C 111.906 257.517,107.515 254.339,108.638 250.155 C 108.766 249.677,109.630 248.927,110.623 248.431 C 111.591 247.948,112.487 247.384,112.615 247.176 C 112.926 246.673,114.688 246.695,115.004 247.206 M98.407 260.591 C 98.158 260.892,97.269 261.253,96.432 261.395 C 94.728 261.682,91.866 264.011,91.285 265.582 C 90.968 266.439,90.891 266.306,90.649 264.486 C 90.272 261.642,88.145 260.788,86.000 262.620 C 85.670 262.902,84.721 263.258,83.890 263.413 C 83.060 263.567,82.154 264.016,81.877 264.412 C 81.599 264.808,80.659 265.260,79.786 265.418 C 77.675 265.799,77.200 266.243,77.200 267.833 C 77.200 268.568,77.425 269.349,77.700 269.570 C 77.975 269.790,78.965 270.645,79.900 271.469 L 81.600 272.967 81.600 279.834 C 81.600 289.033,81.597 289.044,79.230 289.358 C 75.658 289.832,75.094 291.248,77.835 292.858 C 79.299 293.717,93.983 293.933,95.881 293.123 C 99.417 291.614,99.009 289.884,95.000 289.383 L 92.800 289.108 92.800 279.818 L 92.800 270.528 93.823 270.062 C 94.528 269.741,95.079 269.721,95.597 269.998 C 97.344 270.934,100.393 270.487,101.789 269.091 C 103.321 267.559,104.042 267.690,106.632 269.970 C 109.094 272.138,109.200 272.552,109.200 279.986 C 109.200 288.407,109.026 288.979,106.320 289.447 C 102.840 290.049,102.628 291.949,105.916 293.061 C 107.839 293.711,120.316 293.637,122.757 292.961 C 125.566 292.183,124.848 289.200,121.851 289.200 C 120.030 289.200,119.950 288.562,120.026 274.699 C 120.081 264.690,120.018 263.483,119.402 262.802 C 118.315 261.602,116.596 261.417,114.870 262.317 C 114.041 262.749,112.569 263.236,111.599 263.400 C 110.629 263.564,109.371 264.041,108.804 264.460 C 106.933 265.844,104.894 265.898,104.392 264.579 C 103.533 262.321,99.308 259.505,98.407 260.591 M173.800 261.962 C 169.459 263.492,165.619 266.437,165.606 268.246 C 165.603 268.711,165.240 269.550,164.800 270.109 C 164.337 270.698,164.000 271.732,164.000 272.565 C 164.000 273.356,164.360 274.675,164.800 275.496 C 165.240 276.316,165.600 277.472,165.600 278.064 C 165.600 278.820,166.198 279.745,167.612 281.174 L 169.623 283.206 168.619 283.664 C 168.067 283.916,167.515 284.437,167.392 284.824 C 167.270 285.210,166.922 285.621,166.619 285.737 C 165.132 286.308,163.542 291.122,164.561 291.967 C 164.869 292.223,165.241 292.908,165.387 293.490 C 165.533 294.071,166.091 295.069,166.629 295.707 C 167.614 296.878,167.607 297.600,166.611 297.600 C 165.965 297.600,163.200 300.202,163.200 300.810 C 163.200 301.043,162.840 301.620,162.400 302.092 C 161.289 303.284,161.636 306.800,162.864 306.800 C 163.049 306.800,163.200 307.061,163.200 307.380 C 163.200 308.166,165.574 310.360,166.758 310.667 C 167.285 310.804,168.021 311.221,168.394 311.594 C 169.818 313.018,184.979 313.021,186.402 311.598 C 186.772 311.228,187.774 310.812,188.628 310.673 C 189.482 310.534,190.455 310.074,190.790 309.650 C 191.126 309.226,192.001 308.754,192.735 308.600 C 193.726 308.393,194.173 308.023,194.474 307.161 C 194.696 306.522,195.036 306.000,195.229 306.000 C 195.706 306.000,196.800 303.820,196.800 302.869 C 196.800 302.445,197.070 301.874,197.400 301.600 C 198.167 300.963,198.166 298.928,197.398 297.454 C 197.069 296.824,196.800 295.984,196.800 295.588 C 196.800 294.841,194.030 291.600,193.392 291.600 C 193.193 291.600,192.649 291.122,192.182 290.537 L 191.334 289.473 182.968 289.280 C 174.236 289.079,172.845 288.790,172.813 287.170 C 172.778 285.455,174.365 284.870,179.425 284.732 C 184.013 284.606,184.314 284.546,185.556 283.500 C 186.274 282.895,187.034 282.400,187.244 282.400 C 187.878 282.400,190.288 279.787,190.602 278.759 C 190.763 278.232,191.188 277.466,191.547 277.058 C 192.052 276.484,192.200 275.463,192.200 272.558 C 192.200 268.524,192.381 268.231,193.873 269.841 C 194.975 271.030,197.379 270.939,198.282 269.675 C 198.547 269.304,199.012 268.730,199.316 268.400 C 199.620 268.070,199.991 267.588,200.139 267.330 C 200.445 266.800,199.652 264.800,199.136 264.800 C 198.951 264.800,198.800 264.545,198.800 264.233 C 198.800 262.833,193.740 261.203,193.018 262.371 C 192.892 262.575,192.116 262.955,191.294 263.215 C 190.472 263.475,189.575 263.973,189.300 264.321 C 189.025 264.668,188.800 264.752,188.800 264.507 C 188.800 264.262,188.125 263.850,187.300 263.591 C 186.475 263.332,185.068 262.778,184.174 262.360 C 182.496 261.576,175.642 261.313,173.800 261.962 M210.400 261.988 C 209.850 262.164,208.860 262.597,208.200 262.951 C 207.540 263.305,206.839 263.596,206.642 263.598 C 205.975 263.602,201.605 268.014,201.602 268.684 C 201.601 268.951,201.212 269.530,200.739 269.971 C 199.698 270.941,199.248 273.365,199.248 278.000 C 199.248 282.635,199.698 285.059,200.739 286.029 C 201.212 286.470,201.600 287.062,201.600 287.343 C 201.600 287.625,202.005 288.239,202.500 288.708 C 202.995 289.177,203.580 289.754,203.800 289.990 C 205.586 291.906,206.921 292.800,207.996 292.800 C 208.658 292.800,209.200 292.958,209.200 293.151 C 209.200 294.578,217.972 294.875,219.490 293.500 C 219.915 293.115,220.550 292.800,220.901 292.800 C 221.252 292.800,222.047 292.375,222.669 291.855 C 223.291 291.335,224.167 290.795,224.615 290.655 C 225.584 290.352,228.167 287.363,228.578 286.071 C 229.394 283.497,225.733 282.293,223.860 284.520 C 222.864 285.706,219.662 286.317,216.600 285.908 C 213.321 285.469,212.988 285.331,212.469 284.192 C 212.221 283.647,211.758 283.200,211.440 283.200 C 210.775 283.200,210.137 278.702,210.562 277.009 L 210.815 276.000 218.626 276.000 C 226.385 276.000,226.443 275.994,227.418 275.018 C 228.636 273.800,228.753 271.364,227.661 269.954 C 227.255 269.429,226.800 268.501,226.651 267.890 C 225.567 263.453,216.323 260.096,210.400 261.988 M289.417 261.892 C 288.986 262.001,288.266 262.319,287.817 262.598 C 287.368 262.877,286.460 263.230,285.800 263.382 C 285.140 263.535,284.217 264.017,283.748 264.454 C 283.280 264.891,282.290 265.572,281.548 265.967 C 280.807 266.362,279.930 267.205,279.600 267.839 C 279.270 268.474,278.685 269.230,278.300 269.519 C 277.137 270.393,277.422 274.400,278.647 274.400 C 278.955 274.400,279.516 274.760,279.893 275.200 C 280.715 276.160,283.500 276.326,283.841 275.436 C 283.961 275.126,284.490 274.764,285.017 274.631 C 286.322 274.304,286.885 273.091,286.864 270.650 C 286.817 265.045,292.979 265.123,293.487 270.733 C 293.701 273.094,293.688 273.134,292.452 273.773 C 291.763 274.129,291.200 274.576,291.200 274.766 C 291.200 274.956,290.595 275.225,289.855 275.363 C 289.115 275.502,288.203 275.954,287.829 276.368 C 287.454 276.782,286.558 277.231,285.838 277.367 C 285.117 277.502,284.108 278.059,283.594 278.606 C 283.081 279.153,282.483 279.600,282.266 279.600 C 281.761 279.600,279.601 282.006,279.598 282.572 C 279.596 282.807,279.358 283.455,279.067 284.011 C 278.152 285.766,278.018 286.915,278.583 288.176 C 278.884 288.849,279.340 290.075,279.597 290.900 C 279.853 291.725,280.202 292.400,280.373 292.400 C 280.543 292.400,281.169 292.850,281.762 293.400 C 283.170 294.705,287.315 294.852,288.846 293.652 C 289.371 293.241,290.407 292.772,291.149 292.610 C 291.942 292.436,292.574 292.020,292.685 291.598 C 292.994 290.415,295.180 290.318,295.702 291.464 C 295.936 291.979,296.335 292.400,296.586 292.400 C 296.838 292.400,297.655 292.850,298.400 293.400 C 300.097 294.652,303.364 294.796,304.846 293.684 C 305.371 293.290,306.287 292.758,306.883 292.501 C 308.210 291.927,309.685 289.078,309.348 287.737 C 309.043 286.518,307.690 286.193,306.187 286.976 L 305.000 287.594 304.735 285.697 C 304.589 284.654,304.454 280.255,304.435 275.921 C 304.394 266.687,303.973 265.299,300.486 262.906 C 298.620 261.626,292.626 261.076,289.417 261.892 M350.053 262.136 C 349.839 262.394,349.534 263.143,349.376 263.802 C 349.217 264.461,348.761 265.314,348.362 265.698 C 347.963 266.083,347.518 267.073,347.374 267.898 C 347.229 268.724,346.865 269.792,346.565 270.270 C 345.724 271.614,346.513 273.467,348.020 273.688 C 349.308 273.877,350.800 272.689,350.800 271.474 C 350.800 271.064,351.117 270.800,351.610 270.800 C 352.106 270.800,352.567 270.412,352.800 269.800 C 353.009 269.250,353.459 268.800,353.800 268.800 C 354.141 268.800,354.591 268.350,354.800 267.800 C 355.169 266.829,355.292 266.800,359.019 266.800 C 362.508 266.800,362.800 266.857,362.229 267.429 C 361.883 267.774,361.600 268.288,361.600 268.570 C 361.600 268.852,361.164 269.554,360.631 270.129 C 360.098 270.704,359.532 271.585,359.374 272.087 C 359.215 272.589,358.751 273.235,358.343 273.523 C 357.934 273.810,357.600 274.274,357.600 274.553 C 357.600 274.832,357.150 275.483,356.600 276.000 C 355.997 276.567,355.600 277.382,355.600 278.056 C 355.600 278.778,355.305 279.329,354.766 279.618 C 354.308 279.864,353.688 280.649,353.389 281.364 C 353.091 282.079,352.566 282.896,352.223 283.181 C 351.880 283.465,351.600 283.947,351.600 284.252 C 351.600 284.556,351.165 285.184,350.632 285.647 C 350.100 286.109,349.548 286.954,349.405 287.524 C 349.262 288.093,348.690 288.981,348.133 289.497 C 347.009 290.539,347.089 292.139,348.311 293.032 C 348.847 293.423,365.126 294.200,372.800 294.200 C 373.533 294.200,373.977 293.845,374.463 292.872 C 374.828 292.142,375.391 291.242,375.716 290.872 C 376.040 290.503,376.441 289.750,376.608 289.200 C 376.774 288.650,377.241 287.777,377.645 287.259 C 379.247 285.208,378.960 281.600,377.195 281.600 C 376.348 281.600,373.600 284.044,373.600 284.797 C 373.600 285.029,373.145 285.393,372.590 285.604 C 372.034 285.815,371.475 286.261,371.347 286.594 C 371.219 286.927,370.787 287.200,370.388 287.200 C 369.988 287.200,369.153 287.623,368.531 288.140 C 367.150 289.287,360.800 290.022,360.800 289.034 C 360.800 288.737,361.148 288.402,361.574 288.291 C 362.084 288.158,362.440 287.594,362.620 286.634 C 362.770 285.833,363.220 285.003,363.619 284.790 C 364.019 284.576,364.462 284.035,364.604 283.588 C 364.746 283.140,365.298 282.338,365.831 281.805 C 366.364 281.272,366.800 280.378,366.800 279.818 C 366.800 279.173,367.023 278.800,367.409 278.800 C 367.743 278.800,368.238 278.312,368.509 277.715 C 368.779 277.118,369.405 276.192,369.900 275.657 C 370.395 275.121,370.800 274.356,370.800 273.956 C 370.800 273.556,371.160 273.035,371.600 272.800 C 372.040 272.565,372.400 272.135,372.400 271.845 C 372.400 271.556,372.940 270.754,373.600 270.063 C 374.281 269.351,374.800 268.373,374.800 267.804 C 374.800 267.171,375.025 266.800,375.410 266.800 C 376.656 266.800,377.009 263.375,375.856 262.465 C 375.120 261.885,350.522 261.571,350.053 262.136 M101.222 262.412 C 105.339 264.615,100.988 270.459,96.597 268.624 C 92.229 266.799,91.600 268.225,91.600 279.952 C 91.600 290.125,91.660 290.374,94.129 290.428 C 96.300 290.476,97.182 290.968,96.117 291.537 C 94.955 292.159,79.477 292.176,78.320 291.557 C 77.279 291.000,78.016 290.415,79.769 290.406 C 82.288 290.393,82.400 289.979,82.400 280.669 L 82.400 272.263 80.573 270.512 C 78.010 268.057,77.940 266.710,80.357 266.375 C 81.324 266.241,82.314 265.870,82.557 265.551 C 82.801 265.232,84.390 264.519,86.089 263.966 L 89.178 262.961 89.589 264.140 C 89.815 264.789,90.000 265.720,90.000 266.211 C 90.000 267.616,91.147 268.361,91.843 267.408 C 92.149 266.990,92.400 266.417,92.400 266.137 C 92.400 263.746,98.725 261.076,101.222 262.412 M356.000 263.320 C 356.919 263.619,360.460 263.741,366.300 263.675 C 372.191 263.608,375.220 263.713,375.260 263.987 C 375.415 265.057,375.354 265.285,374.686 266.114 C 373.523 267.558,368.241 275.731,367.709 276.911 C 367.438 277.510,367.027 278.000,366.794 278.000 C 366.562 278.000,366.026 278.765,365.603 279.700 C 365.180 280.635,364.289 282.120,363.624 283.000 C 362.958 283.880,362.193 285.050,361.922 285.600 C 361.652 286.150,361.020 287.108,360.517 287.729 C 358.890 289.739,359.735 290.401,363.914 290.393 C 368.149 290.384,370.472 289.132,375.212 284.303 C 376.236 283.260,377.192 282.525,377.337 282.670 C 377.844 283.177,377.593 284.886,376.857 285.938 C 376.448 286.522,375.951 287.450,375.752 288.000 C 374.977 290.139,373.014 292.785,372.400 292.516 C 372.070 292.371,366.595 292.151,360.233 292.027 C 347.879 291.785,347.640 291.737,349.390 289.849 C 349.945 289.249,350.400 288.482,350.400 288.143 C 350.400 287.804,350.770 287.048,351.221 286.463 C 353.866 283.041,354.400 282.222,354.400 281.591 C 354.400 281.207,354.834 280.607,355.365 280.260 C 355.896 279.912,356.453 279.069,356.603 278.387 C 356.753 277.704,357.112 277.055,357.401 276.944 C 357.690 276.833,358.145 276.215,358.412 275.571 C 358.679 274.927,359.052 274.400,359.240 274.400 C 359.429 274.400,359.992 273.665,360.492 272.766 C 360.991 271.867,361.698 270.594,362.063 269.938 C 362.428 269.282,363.034 268.404,363.412 267.987 C 364.990 266.243,362.841 265.347,357.924 265.698 L 355.119 265.899 352.028 268.972 C 349.477 271.508,348.854 271.947,348.468 271.482 C 347.741 270.606,348.342 267.380,349.454 266.179 C 349.977 265.615,350.400 264.661,350.400 264.046 C 350.400 262.247,352.045 262.034,356.000 263.320 M117.790 263.980 C 118.296 264.958,118.400 267.142,118.400 276.736 C 118.400 289.991,118.386 289.931,121.636 290.365 C 122.833 290.524,123.400 290.793,123.400 291.200 C 123.400 291.835,109.046 292.332,106.100 291.799 C 104.172 291.450,104.383 290.400,106.381 290.400 C 110.278 290.400,110.591 289.414,110.342 277.918 L 110.200 271.351 107.800 269.110 L 105.400 266.870 107.291 266.390 C 108.331 266.126,109.547 265.593,109.993 265.206 C 110.452 264.808,111.820 264.388,113.144 264.238 C 114.430 264.093,115.825 263.715,116.242 263.399 C 117.213 262.664,117.084 262.616,117.790 263.980 M184.484 263.876 C 185.959 264.300,187.528 264.973,187.969 265.372 C 188.752 266.081,190.000 266.002,190.000 265.244 C 190.000 264.301,195.978 263.445,197.216 264.210 C 197.471 264.367,197.909 265.042,198.189 265.710 C 199.303 268.359,196.094 270.904,194.293 268.800 C 192.741 266.988,189.826 268.000,190.440 270.138 C 191.702 274.539,189.172 280.989,185.857 281.821 C 185.308 281.959,184.548 282.416,184.167 282.836 C 183.573 283.493,182.904 283.600,179.398 283.600 C 173.380 283.600,172.000 284.292,172.000 287.312 C 172.000 289.993,172.594 290.174,182.141 290.400 C 189.877 290.583,190.677 290.668,191.491 291.400 C 191.981 291.840,193.031 292.740,193.824 293.400 C 196.109 295.301,197.055 301.499,195.406 303.758 C 195.068 304.221,194.355 305.252,193.822 306.050 C 193.256 306.898,192.385 307.616,191.727 307.780 C 191.107 307.933,190.240 308.388,189.800 308.791 C 186.920 311.423,175.338 312.265,168.717 310.323 C 162.488 308.496,161.782 301.209,167.545 298.228 C 168.235 297.871,168.800 297.413,168.800 297.209 C 168.800 296.559,167.884 294.800,167.546 294.800 C 166.320 294.800,165.503 290.160,166.340 287.957 C 166.792 286.769,168.735 284.650,169.709 284.285 C 171.073 283.772,170.939 282.841,169.270 281.222 C 166.322 278.360,165.432 275.181,166.182 270.182 C 166.536 267.818,169.653 264.589,172.000 264.154 C 172.770 264.011,173.850 263.649,174.400 263.348 C 175.758 262.607,181.018 262.882,184.484 263.876 M220.148 263.826 C 223.996 265.214,225.657 267.233,226.800 271.910 C 227.361 274.207,225.988 274.568,217.805 274.277 C 208.675 273.951,207.901 274.488,209.264 280.195 C 210.159 283.944,211.368 285.454,214.761 287.059 C 217.017 288.126,220.922 288.275,221.537 287.318 C 221.682 287.092,222.185 286.788,222.655 286.641 C 223.126 286.494,223.990 285.930,224.576 285.387 C 225.752 284.297,227.108 284.094,227.439 284.958 C 227.698 285.632,225.282 289.053,224.298 289.405 C 223.912 289.542,223.067 290.100,222.421 290.643 C 220.297 292.431,214.031 293.408,210.960 292.431 C 210.322 292.228,209.170 291.957,208.400 291.829 C 206.510 291.516,204.586 289.673,201.686 285.400 C 200.337 283.413,199.836 273.908,200.979 272.000 C 201.309 271.450,201.838 270.460,202.154 269.800 C 202.471 269.140,203.300 268.060,203.997 267.400 C 204.694 266.740,205.632 265.807,206.081 265.327 C 206.530 264.847,207.624 264.331,208.512 264.181 C 209.400 264.031,210.683 263.666,211.363 263.370 C 213.384 262.490,216.959 262.676,220.148 263.826 M299.455 263.840 C 301.787 264.830,301.924 264.965,302.173 266.521 C 302.317 267.423,302.587 268.349,302.773 268.580 C 302.959 268.811,303.183 272.994,303.271 277.875 C 303.448 287.774,303.696 288.706,306.012 288.197 C 307.600 287.848,308.307 288.872,307.416 290.232 C 305.282 293.488,298.909 293.504,296.297 290.259 L 295.194 288.889 293.749 289.626 C 292.955 290.031,292.011 290.620,291.652 290.935 C 289.409 292.902,283.623 293.295,281.600 291.618 L 280.200 290.457 280.200 286.913 C 280.200 283.733,280.301 283.246,281.185 282.184 C 282.546 280.548,285.467 278.400,286.330 278.400 C 286.723 278.400,287.630 277.968,288.346 277.440 C 289.061 276.912,290.255 276.366,290.999 276.227 C 293.945 275.674,295.578 270.566,293.885 267.200 C 293.190 265.817,290.397 265.273,287.958 266.044 L 286.200 266.600 285.984 269.925 C 285.745 273.607,285.589 273.827,282.953 274.226 C 278.265 274.935,277.509 270.331,281.820 267.328 C 282.395 266.928,283.436 266.134,284.133 265.565 C 284.882 264.952,286.347 264.343,287.718 264.074 C 288.993 263.824,290.343 263.441,290.718 263.222 C 292.130 262.399,296.847 262.733,299.455 263.840 M177.691 265.622 C 176.412 265.896,174.824 267.261,174.007 268.788 C 173.547 269.647,173.394 276.840,173.801 278.462 C 174.599 281.640,178.460 282.769,180.836 280.518 L 182.400 279.035 182.400 272.967 C 182.400 268.247,182.275 266.794,181.839 266.432 C 180.930 265.678,179.097 265.320,177.691 265.622 M137.421 267.741 L 136.000 269.883 136.000 275.555 C 136.000 282.060,136.638 284.028,139.679 286.900 C 142.120 289.206,145.860 289.057,147.553 286.587 C 148.768 284.814,148.731 269.840,147.509 268.510 C 147.150 268.120,146.401 267.305,145.846 266.700 C 144.917 265.688,144.597 265.600,141.840 265.600 L 138.843 265.600 137.421 267.741 M212.075 265.865 C 210.183 266.268,208.473 270.879,209.843 271.881 C 210.816 272.593,216.802 272.580,217.781 271.864 C 218.687 271.201,218.484 267.512,217.486 266.514 C 216.847 265.875,213.764 265.505,212.075 265.865 M181.350 268.339 C 182.160 273.242,181.458 278.837,179.921 279.719 C 178.625 280.463,176.800 280.632,176.800 280.008 C 176.800 279.792,176.350 279.502,175.800 279.364 C 174.681 279.083,174.580 278.384,174.767 272.200 C 174.847 269.570,175.001 268.902,175.632 268.451 C 176.054 268.149,176.400 267.666,176.400 267.377 C 176.400 266.822,178.242 266.500,180.054 266.739 C 180.919 266.852,181.151 267.139,181.350 268.339 M146.075 269.122 C 147.088 271.266,147.160 271.805,147.301 278.294 L 147.451 285.187 146.155 286.443 C 144.532 288.017,141.740 287.884,140.624 286.180 C 140.271 285.641,139.736 285.200,139.435 285.200 C 139.119 285.200,138.774 284.567,138.615 283.700 C 138.465 282.875,137.995 281.605,137.571 280.877 C 136.604 279.218,136.422 271.211,137.334 270.455 C 137.628 270.211,138.107 269.289,138.398 268.406 L 138.928 266.800 141.964 266.822 L 145.000 266.843 146.075 269.122 M216.577 267.689 C 217.996 269.714,217.435 271.113,215.088 271.406 C 211.346 271.874,210.581 271.630,210.714 270.011 C 210.954 267.066,215.015 265.458,216.577 267.689 M46.572 268.187 C 44.876 270.775,46.309 286.991,48.488 289.865 C 49.000 290.541,52.376 290.911,55.019 290.580 C 62.425 289.655,65.076 277.567,59.319 270.977 C 56.479 267.726,48.078 265.888,46.572 268.187 M322.400 268.319 C 320.233 270.075,320.912 286.639,323.251 289.052 C 326.309 292.207,331.181 290.387,333.025 285.400 C 333.876 283.100,334.090 276.883,333.349 275.961 C 333.102 275.653,332.778 274.402,332.631 273.183 C 332.089 268.693,325.692 265.651,322.400 268.319 M55.561 269.468 C 55.912 269.768,56.867 270.562,57.683 271.233 C 61.260 274.175,62.278 280.226,60.000 285.000 C 59.340 286.383,58.530 287.618,58.200 287.745 C 57.870 287.871,57.600 288.230,57.600 288.541 C 57.600 289.522,53.886 289.936,50.342 289.350 L 48.884 289.109 48.442 286.138 C 47.808 281.874,47.851 268.928,48.500 268.661 C 49.415 268.285,54.911 268.913,55.561 269.468 M329.186 269.573 C 329.413 269.998,329.953 270.458,330.386 270.595 C 330.889 270.755,331.237 271.305,331.353 272.123 C 333.123 284.611,331.842 289.600,326.866 289.600 C 325.223 289.600,324.809 289.457,324.606 288.820 C 324.470 288.392,324.035 287.938,323.640 287.813 C 322.631 287.493,321.875 273.924,322.650 270.050 L 322.900 268.800 325.836 268.800 C 328.328 268.800,328.834 268.917,329.186 269.573 M291.372 277.986 C 290.916 278.170,290.208 278.834,289.799 279.461 C 289.389 280.087,288.823 280.831,288.542 281.113 C 286.947 282.714,287.690 287.340,289.676 288.175 C 293.078 289.606,294.386 288.192,294.394 283.074 C 294.402 277.875,293.868 276.976,291.372 277.986 M293.514 282.806 C 293.300 287.261,293.392 286.994,291.948 287.339 C 289.611 287.899,287.322 283.286,289.359 282.120 C 289.666 281.944,290.314 281.125,290.798 280.300 C 291.448 279.193,291.945 278.800,292.693 278.800 L 293.707 278.800 293.514 282.806 M176.916 297.389 C 169.896 298.095,167.492 302.361,171.679 306.682 C 174.501 309.593,184.336 309.757,187.156 306.941 C 188.795 305.303,189.763 303.069,189.237 302.138 C 189.008 301.732,188.559 300.736,188.240 299.924 C 187.350 297.656,183.292 296.748,176.916 297.389 M184.557 298.723 C 187.925 299.322,188.920 303.614,186.298 306.235 L 184.870 307.663 179.399 307.532 C 174.108 307.404,173.902 307.367,173.156 306.400 C 172.731 305.850,172.027 304.980,171.592 304.466 C 169.793 302.344,171.550 299.012,174.634 298.695 C 177.331 298.418,182.932 298.434,184.557 298.723 " stroke="none" fill="#97a6ac" fill-rule="evenodd"></path></g></svg>